<svg width="85.6mm" style="width:100%;" viewBox="0 0 242.65 153.01">
  <path d="M242.65,82.17V8.5A8.51,8.51,0,0,0,234.14,0H8.5A8.51,8.51,0,0,0,0,8.5V82.17" style="fill:#798c9b"></path>
  <rect y="64.6" width="242.65" height="17.57" style="fill:#798c9b"></rect>
  <rect y="82.17" width="242.65" height="56.69" style="fill:#fff"></rect>
  <path d="M242.65,138.87v5.64a8.5,8.5,0,0,1-8.51,8.5H8.5a8.5,8.5,0,0,1-8.5-8.5v-5.64" style="fill:#798c9b"></path>
  <path d="M234.14.25A8.27,8.27,0,0,1,242.4,8.5v136a8.27,8.27,0,0,1-8.26,8.25H8.5a8.26,8.26,0,0,1-8.25-8.25V8.5A8.26,8.26,0,0,1,8.5.25H234.14m0-.25H8.5A8.51,8.51,0,0,0,0,8.5v136A8.5,8.5,0,0,0,8.5,153H234.14a8.5,8.5,0,0,0,8.51-8.5V8.5A8.51,8.51,0,0,0,234.14,0Z"></path>

  <path d="M192.65,29.9a20.8,20.8,0,1,1,20.79,20.8,20.79,20.79,0,0,1-20.79-20.8" style="fill:#fff"></path><path d="M210.85,26.06a0,0,0,0,1,0,0s0,0,0,0l0-.05.05,0,.06,0,.06,0,.06,0,.12,0,.1,0,.06,0,.08,0,.08,0,0,0v-.07l0,0h0a.11.11,0,0,0-.06,0l-.07,0a.46.46,0,0,0-.1.05l-.11.06-.08,0-.08,0-.09,0h-.08a.28.28,0,0,1-.1,0,.17.17,0,0,1-.08,0s0-.05,0,0l.05,0h.24l.09,0a.14.14,0,0,0,0-.05v-.07l0-.08,0,0,0,0-.08-.05-.06,0-.07,0h-.07s-.17,0-.21.06h-.05l0-.15,0-.11h.09l.14,0,.07,0,.07,0,.09,0,.06,0,.07,0h.1l0,0v0l0-.05,0-.06-.1-.08-.1-.06,0,0-.05,0-.06,0h-.26l0,0v-.13l.06,0,.06,0h.53l.12,0,.09,0,.14.06.07.06.13.15.11.12.09.14.13.14.12.16.05.06s0,.07,0,.08v.09a.11.11,0,0,1-.09.05h-.56l-.09,0-.09,0-.08,0-.12,0L211,26Zm-.15-1.3,0,0,.06,0,.32.08.32.24.17.2.17.12a.12.12,0,0,0,0-.17l-.1-.12-.19-.23-.13-.07-.15-.06-.17,0h-.29Z" style="fill:#00427a"></path><path d="M220.69,37.63c.07-.1.09-.35.95-.41.2,0,.29.25.15.26h-.12c-.18,0-.14.11-.14.11s.07.15.35.13H222c.39-.1.1-.39.1-.39a.82.82,0,0,0-.32-.16l-.1,0-.16,0-.3,0a1.84,1.84,0,0,1-.66.06Z" style="fill:#00427a"></path><path d="M220.12,36.37l.2.1a1.27,1.27,0,0,0,.88.23s.85-.08,1.19.29a1,1,0,0,0,0-.26c-.12-.25-.67-.25-.67-.25a1.64,1.64,0,0,1-1-.06l-.37-.27-.27-.09Z" style="fill:#00427a"></path><path d="M222.73,36.76l-.3-.47a1,1,0,0,0-.55-.19h-.25l-.42,0a2.24,2.24,0,0,1-.85-.15l-.15,0s-.05-.19-.05-.21,0-.2,0-.2a.36.36,0,0,0,.35.26.15.15,0,0,0,.12,0l.44,0,.62,0,.29,0a.78.78,0,0,1,.65.55Z" style="fill:#00427a"></path><polygon points="222.74 35.2 222.55 34.95 222.39 34.82 222.22 34.69 222.05 34.59 221.89 34.5 221.68 34.39 221.38 34.23 221.13 34.08 220.9 33.91 220.73 33.8 220.63 33.69 220.62 33.46 220.64 33.19 220.71 32.98 220.76 32.79 220.8 32.6 220.83 32.41 220.82 32.28 220.8 32.1 220.76 31.92 220.91 31.82 221 31.98 221.04 32.12 221.05 32.28 221.04 32.44 221.03 32.65 220.99 32.82 220.93 33.02 220.87 33.16 220.82 33.33 220.79 33.51 220.82 33.67 220.98 33.8 221.19 33.86 221.5 33.99 221.76 34.08 221.99 34.16 222.18 34.29 222.36 34.41 222.53 34.53 222.72 34.71 222.91 34.91 222.87 35.03 222.74 35.2" style="fill:#00427a"></polygon><path d="M223.05,34.46c-.14-.27-.59-.29-.59-.29a.14.14,0,0,1-.07-.06.07.07,0,0,1,.05,0,1.57,1.57,0,0,1,.59.15l0,.1Z" style="fill:#00427a"></path><path d="M223.05,34.46c-.14-.27-.59-.29-.59-.29a.14.14,0,0,1-.07-.06.07.07,0,0,1,.05,0,1.57,1.57,0,0,1,.59.15l0,.1Z" style="fill:none;stroke:#00427a;stroke-miterlimit:3.86400008201599;stroke-width:0.061999998986721px"></path><path d="M221.1,32.1a1.21,1.21,0,0,1,.3.41l-.27.69c-.1.38,0,.55.25.5l1.47.08-.14-.4a.24.24,0,0,1-.19.07c-1.47.29-1.11-.31-1.11-.31s.21-.56.21-.56c.06-.16-.12-.39-.12-.39s-.39-.47-.39-.47l-.18.1s.14.22.17.28" style="fill:#00427a"></path><path d="M221.8,33.24l.28-.4c.19-.42-.31-.62-.31-.62a.84.84,0,0,0-.29,0l-.26-.15s-.13-.12-.13-.12a5.64,5.64,0,0,1,.8.11c.5.34.58.66.23,1l-.13.23-.1.31h-.21Z" style="fill:#00427a"></path><path d="M222,35.75v-.1l.07-.3,0-.23,0-.08V35l.06.05,0,.09,0,.1v.15l0,.14s-.07.07,0,.27l0,.09h-.09s0,0-.06-.05,0,0,0-.08" style="fill:#00427a"></path><path d="M221.68,35.89l-.06,0-.06-.09,0-.06v-.06l0-.07,0-.13,0-.15v-.17l0-.12-.09-.15-.1-.08-.12-.12-.19-.09-.21-.1-.11-.06-.19-.1-.23-.17-.12-.13-.09-.13,0-.18V33.5l0-.15.06-.15.06-.14.05-.11v-.33l0-.17,0-.11,0-.08s-.06-.2,0-.24a1.64,1.64,0,0,1,.21-.07c-.14,0,.25,0,.17.09a.34.34,0,0,1,0,.16v.15l0,.16,0,.14,0,.16,0,.12-.05.13,0,.13,0,.1-.05.19v.17l0,.18.08.15.11.11.14.06.2.11.21.09.15.07a1.56,1.56,0,0,0,.24.11l.1.09.11.14.09.11,0,.14v.26l0,.24v.2l0,.13,0,.08Z" style="fill:#00427a"></path><path d="M219.27,32.34v.12l0,.31-.23.72a.77.77,0,0,0,.07.6l.21.37.07.14s.18.54-.06.67c-.36.4-.47-.06-.47-.06l-.17-.33-.11-.37a1.94,1.94,0,0,0-.22-.36l-.1-.12-.1-.09-.14-.16-.11-.08-.07-.05-.1,0-.1,0s-.06.06-.05.08l.05.11.09.05.17.09.13.11.16.2.12.17.14.34.07.26.11.23.16.27c.18.21.52.08.54.08a.85.85,0,0,0,.14-.09s.11,0,.13,0a1.65,1.65,0,0,0,0-.33v-.36a1.31,1.31,0,0,0-.08-.33l-.29-.48a.93.93,0,0,1,0-.66l.19-.48.06-.18.07-.32V32.3c-.06-.17-.24-.08-.27-.07s0,.11,0,.11" style="fill:#00427a"></path><path d="M219.59,35.48l0,.12-.05.1-.06.07-.08.08-.13.11a.66.66,0,0,1-.61,0l-.19-.15-.47-.69-.19-.28-.29-.34c-.43-.32-.63.08-.63.08l-.06.1.23-.55a2.1,2.1,0,0,1,.69.3l.74,1.13.2.24a.38.38,0,0,0,.42-.07l.1-.09a.4.4,0,0,1,.17-.08.53.53,0,0,1,.1-.07l.14-.06" style="fill:#00427a"></path><path d="M218.61,32.08v.18c.08.09,0,.15,0,.15s-.07.09-.07.09l-.12.13-.12.2-.07.19,0,.17a1.56,1.56,0,0,0,.15.62l.23.34a.88.88,0,0,1,.09.58l0,.22.12.25,0,.08a.9.9,0,0,1,0-.16s0-.5,0-.5a1.21,1.21,0,0,0-.06-.42,2.9,2.9,0,0,1-.39-.71c-.08-.27-.05-.41,0-.51l.18-.24.1-.12.11-.1.07-.08.07-.1,0-.08a.16.16,0,0,0-.08-.12.44.44,0,0,1-.12-.07l-.14-.07Z" style="fill:#00427a"></path><path d="M218.49,36.51l-.08,0h-.15a.4.4,0,0,0-.3,0l-.31.24-.18.15-.12.13c-.1.11-.17,0-.17,0L217,36.9l.07,0h.14l.32-.21.31-.3.07-.06c0-.33-.24-.25-.24-.25l-.06.05-.06.1s-.06,0-.1,0a.16.16,0,0,1,0-.09.44.44,0,0,1,.17-.2.57.57,0,0,1,.25,0v-.08c-.08-.2-.38-.22-.38-.22-.45,0-.43.29-.43.29l0,.12-.16-.47H217l.27-.09a.93.93,0,0,1,.24,0c.18,0,.43.33.43.33l.2.44a.14.14,0,0,0,.07.09l.2.12a1.2,1.2,0,0,0,.11.12" style="fill:#00427a"></path><path d="M219.65,36.15c.31-.73.45-.72.33-1.62a5.78,5.78,0,0,0-.49-.67.84.84,0,0,1,0-.28,1.47,1.47,0,0,1,.22-.52.79.79,0,0,0,.12-.26l.05-.36v-.08l.23-.09a3.73,3.73,0,0,1-.15.92c-.19.36-.21.64-.06.83l.21.28s.12,0,.12,0l.34.27.4.36.26.29a.87.87,0,0,1,.11.57.42.42,0,0,1-.13,0v-.25a.62.62,0,0,0-.17-.32l-.32-.33-.39-.3-.06,0v.09l0,.07.1.12.52.72.13.22h-.35l0-.13a1.36,1.36,0,0,0-.39-.64l0,.17,0,.45,0,.22s0,.34,0,.32-.59,0-.59,0" style="fill:#00427a"></path><path d="M218.64,32.27l.12.1c1.68.11,2.07-.34,2.07-.34a1.39,1.39,0,0,0,.32-.36l.19-.07,0-.24-.2.08-.18,0-.12,0,0,.21c-.06.27-1.48.52-1.48.52h-.4l-.14,0Z" style="fill:#00427a"></path><path d="M218.82,32.12a.93.93,0,0,1,0-.14l.06-.08a7.09,7.09,0,0,0,1.87-.39c.16,0,.16-.06.16-.06.14-.22,0-.25,0-.25l-.24.08a5.48,5.48,0,0,1-2,.48l0,.11V32Z" style="fill:#00427a"></path><path d="M218.69,31.7c0-.09.09-.09.09-.09a6.61,6.61,0,0,0,1.57-.37l.34-.14a.26.26,0,0,1,.25-.05v-.23l-.06-.16s-.05-.08-.05-.06-.22.29-.22.29a3.46,3.46,0,0,1-1.29.48l-.2,0h-.29c-.16,0-.17-.23-.17-.23l-.14.15.06.25Z" style="fill:#00427a"></path><path d="M220.88,30.67c0-.17-.32-.07-.32-.07a4.11,4.11,0,0,1-1.41.54c-.46,0-.52.13-.52.13-.18,0-.22-.12-.22-.12s0-.38,0-.4a.36.36,0,0,0-.05-.09l.12,0,.22.23a1.16,1.16,0,0,0,1-.37c.4-.15.53-.19.64-.33a.18.18,0,0,1,.12-.06h.39Z" style="fill:#00427a"></path><path d="M215.43,29.71a2,2,0,0,0,.24-.2l.1-.11.12-.09a2.36,2.36,0,0,0,.27,0,.35.35,0,0,0,.09.1,1.25,1.25,0,0,1,.12.12l.13.09a1,1,0,0,0,.15.09l.17.05.13,0,.13.08.18.06.14.07.08.06.08.06.21.17.13.08.11.08c.08.16.42.23.42.23l-.09-.15-.05-.14v-.17s0-.11,0-.13a.46.46,0,0,0,0-.09l-.15-.1-.13-.08-.25-.05-.11-.06-.19-.1-.18-.06h-.14l-.14-.05a2.19,2.19,0,0,1-.57-.42l-.12-.12-.1,0h-.29s-.06,0-.41.24a.25.25,0,0,1-.26,0,1.67,1.67,0,0,1,.05.19l.11.2Z" style="fill:#00427a"></path><path d="M219.69,30.58c0-.06-.16-.12-.16-.12l-.34,0-.28,0-.15-.05-.11,0-.09-.06-.09-.06-.2-.17-.12,0L218,30l-.1-.12h.58l.17,0,.14,0L219,30l.24.11a.37.37,0,0,0,.44,0l.12,0c.08.31.45.23.45.23a3.47,3.47,0,0,1-.54.21" style="fill:#00427a"></path><path d="M217.17,24.15l-.1,0L217,24l-.08-.06-.11,0-.11,0-.12-.07-.17-.11-.09-.13-.09-.15-.14-.23L216,23l0-.1v-.07l0,0a.28.28,0,0,1,.14,0,.92.92,0,0,1,.24.16l.12.1.1.05.22.08.13,0,.33.08a3.27,3.27,0,0,1,.36.14A.82.82,0,0,1,218,24l.05.23,0,.22v.17l0,.24,0,.13.05.15,0,.1v.13a.32.32,0,0,1-.11,0,.51.51,0,0,1-.09-.12l-.06-.1,0-.15v-.23l0-.19V24.3a.93.93,0,0,0-.17-.54l-.13-.11-.17-.08-.13-.05-.27-.06-.25,0-.24-.11-.11-.08c-.13,0-.08.11-.08.11l.05.12.08.11a.6.6,0,0,0,.28.13l.35,0,.11,0,.1,0,.09.07.08.11v.09c-.06.13-.23.07-.23.07" style="fill:#00427a"></path><path d="M217.17,24.15l-.1,0L217,24l-.08-.06-.11,0-.11,0-.12-.07-.17-.11-.09-.13-.09-.15-.14-.23L216,23l0-.1v-.07l0,0a.28.28,0,0,1,.14,0,.92.92,0,0,1,.24.16l.12.1.1.05.22.08.13,0,.33.08a3.27,3.27,0,0,1,.36.14A.82.82,0,0,1,218,24l.05.23,0,.22v.17l0,.24,0,.13.05.15,0,.1v.13a.32.32,0,0,1-.11,0,.51.51,0,0,1-.09-.12l-.06-.1,0-.15v-.23l0-.19V24.3a.93.93,0,0,0-.17-.54l-.13-.11-.17-.08-.13-.05-.27-.06-.25,0-.24-.11-.11-.08c-.13,0-.08.11-.08.11l.05.12.08.11a.6.6,0,0,0,.28.13l.35,0,.11,0,.1,0,.09.07.08.11v.09C217.34,24.21,217.17,24.15,217.17,24.15Z" style="fill:none;stroke:#00427a;stroke-miterlimit:3.86400008201599;stroke-width:0.061999998986721px"></path><path d="M218.57,28.71c0,.08,0,.13.12.15a1.33,1.33,0,0,0,.19.05c.05,0,.1-.06.09-.09s-.06-.06-.06-.06a.35.35,0,0,0-.34-.05" style="fill:#00427a"></path><path d="M218.57,28.71c0,.08,0,.13.12.15a1.33,1.33,0,0,0,.19.05c.05,0,.1-.06.09-.09s-.06-.06-.06-.06A.35.35,0,0,0,218.57,28.71Z" style="fill:none;stroke:#00427a;stroke-miterlimit:3.86400008201599;stroke-width:0.061999998986721px"></path><path d="M214,26.33s-.09,0-.09,0a.2.2,0,0,1,0-.18s0-.06.06-.06l.09,0a.35.35,0,0,1,.25,0l.1.05.1.07c.05.06.08.1.08.12a1.15,1.15,0,0,1,0,.31.6.6,0,0,1-.35.26l-.46.11-.13.05-.07.09-.08.21a4.57,4.57,0,0,0-.1-.48,1.57,1.57,0,0,1-.06-.28l.31.25a1.08,1.08,0,0,0,.72-.24l0-.13a.84.84,0,0,0,0-.12s-.06-.1-.23-.05a.31.31,0,0,1-.12.06" style="fill:#00427a"></path><path d="M214,26.33s-.09,0-.09,0a.2.2,0,0,1,0-.18s0-.06.06-.06l.09,0a.35.35,0,0,1,.25,0l.1.05.1.07c.05.06.08.1.08.12a1.15,1.15,0,0,1,0,.31.6.6,0,0,1-.35.26l-.46.11-.13.05-.07.09-.08.21a4.57,4.57,0,0,0-.1-.48,1.57,1.57,0,0,1-.06-.28l.31.25a1.08,1.08,0,0,0,.72-.24l0-.13a.84.84,0,0,0,0-.12s-.06-.1-.23-.05A.31.31,0,0,1,214,26.33Z" style="fill:none;stroke:#00427a;stroke-miterlimit:3.86400008201599;stroke-width:0.061999998986721px"></path><path d="M211.86,20.94a4.41,4.41,0,0,1,.44-.22l.45-.15.31-.08a10.31,10.31,0,0,1,2.07-.17,6.62,6.62,0,0,1,1.72.22,14.22,14.22,0,0,1,1.42.47,2.68,2.68,0,0,1,1.15.92l.69,1.11a10.06,10.06,0,0,1,.46,1.36l.13.53.16.6a10.09,10.09,0,0,1,.29,1.42l0,.42.08.75,0,.4.08.63a5.28,5.28,0,0,1-.19.74l-.24.32-.23.07v-.13l.26-.34a1.73,1.73,0,0,0,.18-.36s0-1.3,0-1.3l0-.7,0-.44c0-.05-.07-.56-.07-.56s-.11-.34-.11-.34l-.12-.4-.11-.39-.12-.48-.07-.43a7.73,7.73,0,0,0-.26-.88,8.68,8.68,0,0,0-1-1.56l-.4-.37a8.55,8.55,0,0,0-4.87-1.06l-1,.14a4,4,0,0,0-.73.24.79.79,0,0,1-.3.1c-.09,0,0-.08,0-.08" style="fill:#00427a"></path><path d="M215.77,21.3l.26.14a6,6,0,0,0,1.36.67s.81.34,1,.78a2.33,2.33,0,0,1,.26.52s.11.37.11.37l.15.76.09.28a1.25,1.25,0,0,0,.34.51l.62.54a1.27,1.27,0,0,1,.33.72c0,.07-.06.1-.09,0a1.23,1.23,0,0,0-.09-.24,2.74,2.74,0,0,0-.38-.41l-.35-.26L219,25.4l-.24-.21a.83.83,0,0,1-.11-.5v-.36a2.87,2.87,0,0,0-.14-.77l-.07-.17-.06-.14-.12-.24s-.08-.07-.22-.21a2.46,2.46,0,0,0-1-.6,2.62,2.62,0,0,1-.7-.23c-.64-.39-.6-.67-.6-.67" style="fill:#00427a"></path><path d="M215.77,21.3l.26.14a6,6,0,0,0,1.36.67s.81.34,1,.78a2.33,2.33,0,0,1,.26.52s.11.37.11.37l.15.76.09.28a1.25,1.25,0,0,0,.34.51l.62.54a1.27,1.27,0,0,1,.33.72c0,.07-.06.1-.09,0a1.23,1.23,0,0,0-.09-.24,2.74,2.74,0,0,0-.38-.41l-.35-.26L219,25.4l-.24-.21a.83.83,0,0,1-.11-.5v-.36a2.87,2.87,0,0,0-.14-.77l-.07-.17-.06-.14-.12-.24s-.08-.07-.22-.21a2.46,2.46,0,0,0-1-.6,2.62,2.62,0,0,1-.7-.23C215.73,21.58,215.77,21.3,215.77,21.3Z" style="fill:none;stroke:#00427a;stroke-miterlimit:3.86400008201599;stroke-width:0.061999998986721px"></path><path d="M212,21.6a5,5,0,0,1,.73-.22s.55-.1.58-.1l1-.13a1.69,1.69,0,0,1,.71.1.68.68,0,0,1,.21.11l.51.41.52.35.36.18.76.26c.06,0,.55.24.55.24s.68.39.62.66a2.94,2.94,0,0,0-.8-.52,5.23,5.23,0,0,1-1.62-.69L215.7,22l-.33-.22a2.09,2.09,0,0,0-1.07-.39,8.39,8.39,0,0,0-1.68.15,1.34,1.34,0,0,1-.62.07" style="fill:#00427a"></path><path d="M216.64,21s.22,0,.44.07l.42.15s.57.24.64.29a4.33,4.33,0,0,1,.68.45,1.81,1.81,0,0,1,.46.52,3.26,3.26,0,0,1,.59,1.16l.12.39.06.34.1.56.08.34-.32-.45-.12-.15-.09-.16-.1-.29a5.24,5.24,0,0,0-.58-1.74,2.7,2.7,0,0,0-.83-.78c-.1-.07-.72-.35-.72-.35s-.52-.2-.59-.21c-.37-.1-.24-.14-.24-.14" style="fill:#00427a"></path><path d="M213.36,22.83a1.8,1.8,0,0,0,.54.21,2.89,2.89,0,0,1,.55.07s.19.09.22.19a.58.58,0,0,1,0,.14l0,.31s.06.36.11.37,0,.11.73.28a1.55,1.55,0,0,1,.39.19.75.75,0,0,1,.18.19,2.34,2.34,0,0,1,.08,1.25l0,.18c.3.26.47.22.47.22v-.09a1,1,0,0,0-.08-.2l-.31-1.37c-.13-.26-.71-.5-.71-.5-.34-.09-.36-.34-.36-.34l-.08-.34-.1-.36a.48.48,0,0,0-.48-.43h-.42l-.21,0-.18,0-.27-.11s-.31-.07-.15.19" style="fill:#00427a"></path><path d="M213.41,23.5l.2,0,.14.05c.13,0,.16,0,.16,0l.29-.1h.1l.19,0c.38.09.41.33.41.33l-.23-.07-.21,0h-.55a.44.44,0,0,1-.5-.23" style="fill:#00427a"></path><path d="M213.3,22.18a.42.42,0,0,0,.56.18l.47-.09.29,0a1.31,1.31,0,0,1,.35.07.61.61,0,0,1,.44.35,2.88,2.88,0,0,1,.17.31l.13.34a1.69,1.69,0,0,0,1,1.05l.46.12.14.07s.18.13.21.23l.11.22.1.29.15.41.13.11.16.13.14.19c-.05.05,0,.16,0,.16s-.14.05-.14.05l-.16,0a.39.39,0,0,1-.12-.16l0-.24-.21-.7a.74.74,0,0,0-.45-.48l-.4-.2-.55-.3c-.4-.19-.62-.89-.62-.89-.17-.7-.48-.86-.48-.86-.17-.17-1-.07-1-.07l-.32.1-.51.18s0-.26,0-.29.05-.31.05-.31" style="fill:#00427a"></path><path d="M216.72,25.09a1.55,1.55,0,0,1,.18,1.1l.07.34.21.31s.37.42.38.45a1.11,1.11,0,0,1,.16,1.32l-.16.2,0,.06,0,.42.07.12a1.86,1.86,0,0,0,.48.08h.52s.23,0,.18-.06l-.13-.07s-.23-.17-.24-.22a2.58,2.58,0,0,1,0-.36.72.72,0,0,0-.05-.14s-.09-.15-.15,0c0,0,0,.18,0,.18l-.05.19-.17.08s0,0-.09,0,0-.15,0-.15a1.35,1.35,0,0,1,.13-.21l.06-.21.08-.29,0-.34-.09-.29-.09-.19-.39-.52-.18-.24-.17-.24-.09-.29v-.71a.84.84,0,0,0-.21-.46c-.25-.09-.15.13-.15.13" style="fill:#00427a"></path><path d="M211.75,21.29l.48-.21.6-.14a11.29,11.29,0,0,1,2.45-.13,5.55,5.55,0,0,1,1.39.42,6.83,6.83,0,0,1,2,1.24,1.74,1.74,0,0,1,.22.42l.41,1.25a1.76,1.76,0,0,0,.25.55.67.67,0,0,0,.21.18l.15.06a.77.77,0,0,1,.26.23.83.83,0,0,1,.16.43s0,.23,0,.23l-.15-.18-.28-.29a2,2,0,0,1-.81-1.28l-.12-.48-.16-.48c-.17-.91-2.55-1.86-2.55-1.86a4.7,4.7,0,0,0-2.26-.33c-.16,0-.55.07-.55.07l-1,.18-.4.08Z" style="fill:#00427a"></path><path d="M220.11,30.5c.07,0,.1-.07.12-.19l.05-.23,0-.29v-.24l0-.26v-.21a1.53,1.53,0,0,0-.75-.66l-.3-.1-.23-.13L218.9,28l-.17-.11-.23-.07c-.13,0-.05-.08-.05-.08a.51.51,0,0,1,.15,0l.29,0,.21.05a1.19,1.19,0,0,0,.24.2,12.41,12.41,0,0,1,1.24.82c.11.06.1.27.1.27v.21l0,.23,0,.16-.09.36,0,.22a.64.64,0,0,0-.06.12l-.1.11-.13,0Z" style="fill:#00427a"></path><path d="M220.66,28.76l-.21-.36a1.62,1.62,0,0,0-.64-.64c-.25-.07-.3-.17-.3-.17a2.72,2.72,0,0,1,0-.28,1.12,1.12,0,0,0-.32-.8s-.45-.24-.49-.25l-.5-.17s-.32-.24-.32-.24l-.07-.18.13.09.42.21,1,.47a1.21,1.21,0,0,1,.34.27,3.26,3.26,0,0,1,.13.48.38.38,0,0,0,.16.24l.67.62a1.81,1.81,0,0,1,0,.71" style="fill:#00427a"></path><path d="M220.66,28.76l-.21-.36a1.62,1.62,0,0,0-.64-.64c-.25-.07-.3-.17-.3-.17a2.72,2.72,0,0,1,0-.28,1.12,1.12,0,0,0-.32-.8s-.45-.24-.49-.25l-.5-.17s-.32-.24-.32-.24l-.07-.18.13.09.42.21,1,.47a1.21,1.21,0,0,1,.34.27,3.26,3.26,0,0,1,.13.48.38.38,0,0,0,.16.24l.67.62A1.81,1.81,0,0,1,220.66,28.76Z" style="fill:none;stroke:#00427a;stroke-miterlimit:3.86400008201599;stroke-width:0.061999998986721px"></path><path d="M213.54,22.42a.41.41,0,0,1,0-.25c.16-.28,1.42-.13,1.55-.07l.57.31.6.32a8.56,8.56,0,0,0,1.75.7c.34.21.3,1.06.3,1.06V25l0,.28,0,.21a.35.35,0,0,0,.15.22l1.27.75a1,1,0,0,1,.39.79.5.5,0,0,1-.1.32.71.71,0,0,1,0,.15.41.41,0,0,0,.13.09l.23.13,0-.14-.06-.23,0-.52,0-.38c0-.1,0-.15-.16-.21l-.16-.08-.64-.33-.23-.13-.32-.19-.21-.23-.13-.24-.08-.29,0-.27v-.53l0-.3c.06-.46-.94-.72-.94-.72l-.71-.25-.29-.13-.5-.35a4.91,4.91,0,0,0-.5-.34,2.84,2.84,0,0,0-1.39-.31l-.31,0a.76.76,0,0,0-.4.18v.13a.68.68,0,0,0,0,.15.54.54,0,0,0,.07.12Z" style="fill:#00427a"></path><path d="M213.5,23.89l.86.7a1.88,1.88,0,0,0,.81.38,2.81,2.81,0,0,0,.39,0c.29.07.28.44.28.44.08.54-.17.55-.17.55l-.13.06s-.13.08,0,.1a5,5,0,0,0,.53,0l-.14-1c-.11-.4-.67-.36-.67-.36a1.05,1.05,0,0,1-.3,0,1.55,1.55,0,0,1-.61-.33l-.8-.6c-.23-.09,0,.09,0,.09" style="fill:#00427a"></path><path d="M219.88,30.31l0-.26.09-.34a.31.31,0,0,0,0-.13s-.22-.29-.22-.29a.74.74,0,0,1,0-.25,2,2,0,0,0-.17-.6.68.68,0,0,0-.37-.29l-.13,0s0,0,0,.08a1.42,1.42,0,0,1,.39.71c0,.06,0,.05,0,.08s.05.15.05.15l.06.16.18.36c.07.09-.1.32-.1.32l0,.23Z" style="fill:#00427a"></path><path d="M219.86,30.39l0-.24a1,1,0,0,0-.06-.26,1.9,1.9,0,0,0-1.23-.5l-.11,0,.05.08c1.33.29,1.17.63,1.17.63s0,.11,0,.11l.08.1Z" style="fill:#00427a"></path><path d="M218,29.34l.46-.06a2,2,0,0,1,1.06-.05c.08,0,.15.11.15.11l.05-.05V29.2c0-.16-.3-.19-.3-.19l-.71,0-.31.05-.49.13Z" style="fill:#00427a"></path><path d="M217.3,25.23v.2s0,.62,0,.55,0,.34.15.45l.24.2a1.72,1.72,0,0,1,.27.36,3.62,3.62,0,0,1,.12.52l-.05.26.07.15.3-.05.13,0,0-.08s-.08-.05-.12,0l-.08,0,0-.21a2.31,2.31,0,0,0-.18-.45l0-.12-.1-.3-.19-.28c-.15,0-.25-.26-.25-.26a4.47,4.47,0,0,1-.08-.73c0-.06-.13-.18-.13-.18" style="fill:#00427a"></path><path d="M219.18,28.05s-.07-.2-.07-.2l.07-.53a1.41,1.41,0,0,0-.63-.95l-.31-.1-.18,0a.45.45,0,0,1-.4.08,1.86,1.86,0,0,1-.52.06.48.48,0,0,1-.16-.13s0-.14-.06-.09-.29,0-.29,0l-.47-.2,0,0-.36,0v.06l.08,0s.77.25.89.7c0,0,.19.05.22.05s.39-.13.39-.13.13-.33.4-.16a2.49,2.49,0,0,0,.41,0l.32.05c.39.11.45.77.45.77s-.08.23-.08.23L219,28c.1.11.15,0,.15,0" style="fill:#00427a"></path><path d="M213.38,25.55l.11-.08.1-.1s.11-.13.16-.13h.16a3.34,3.34,0,0,1,.33.07l.3.11.32.06.13,0,.21.11.11.15.05.09,0,.13.1.08.21.05-.1-.29-.16-.37-.12-.1-.13-.06c-.76-.14-.8-.29-.8-.29l-.08-.08-.33-.29-.43-.44a1.33,1.33,0,0,0-.23-.17c-.07,0,0,.09,0,.09l.37.31a5.18,5.18,0,0,0,.32.43.32.32,0,0,1,.1.15c0,.09-.14,0-.14,0l-.1-.13-.54-.51c-.19-.12-.06.09-.06.09s.36.43.36.43l0,.18-.08.07-.12-.05-.06,0-.1.19Z" style="fill:#00427a"></path><path d="M217.37,29.6l-.05-.13,0-.15c0-.12.21,0,.21,0l.13,0s0-.42,0-.42h-.24l-.21,0s-.11-.15-.05-.15c.44,0,.46-.61.46-.61,0-.15-.12-.07-.12-.07a.66.66,0,0,1-.46.57h-.2l-.13,0-.06-.06c.47-.25.55-.49.55-.49s0-.37,0-.37l0-.16c-.05-.06-.11,0-.11,0v.13a.55.55,0,0,1,0,.18c-.32.66-.61.44-.61.44l-.06-.07c.54-.07.45-1.16.45-1.16l0-.15-.06-.06h-.08a2.14,2.14,0,0,1,.08.49s-.15.71-.6.61c0,0-.18,0-.16-.06s0-.1.05-.11l.17-.08a1.56,1.56,0,0,0,.18-.17l.07-.14v-.28a.16.16,0,0,0-.07,0l0,.07a.54.54,0,0,1-.44.5l-.17.08h-.1l-.05,0a.92.92,0,0,0,.42-.58l0-.18c0-.08,0-.12,0-.11s-.06,0-.06,0-.05.06-.05.06l-.08.26a.83.83,0,0,1-.39.42c-.15,0-.08-.11-.08-.11.35-.37.32-.49.32-.49l0-.27s-.08,0-.08,0l-.05.14a.75.75,0,0,1-.35.54.24.24,0,0,0-.11,0l0-.08.12-.07.09-.11.09-.15a1.58,1.58,0,0,0,0-.19l0-.13a.08.08,0,0,0-.08,0s0,.08,0,.08a.75.75,0,0,1-.21.35s-.13,0-.08-.05.11-.38.11-.38v-.41l0-.1.25-.06.38,0,.09-.08-.16-.13-.34-.05-.16.07h-.31l-.06,0-.36-.23a.31.31,0,0,0-.14,0s-.07.07,0,.11a.83.83,0,0,1,.47,1.2s-.1.09-.1.09a.92.92,0,0,1-.26,0l-.17-.07-.15-.14v-.15l-.42.07,0,.09V27l.15.13c.05,0,.11.17.11.17s0,.3,0,.3l0,.9a1.62,1.62,0,0,0,.15.36.66.66,0,0,0,.14,0,1.17,1.17,0,0,1-.14-.54l.07-.49a2.18,2.18,0,0,0,.06-.22s0-.28,0-.28a.06.06,0,0,1,.06-.05.15.15,0,0,1,.08,0s0,.05,0,.05,0,.35,0,.35a2.25,2.25,0,0,0-.09,1.15l.21,0a1.06,1.06,0,0,1-.13-.43l0-.24.06-.25.05-.37,0-.06h.07V28l0,.31a1.47,1.47,0,0,0,.06.47l.13,0,0-.18,0-.24s0-.19,0-.22.08-.33.08-.33l.07-.1c.13,0,.14.12.14.12l-.13.66a1.84,1.84,0,0,0,0,.34,2.3,2.3,0,0,0,.12.23s.07,0,.07,0,.05-.72.05-.72a.11.11,0,0,1,.16,0,.24.24,0,0,0,.22-.19s.24-.23.25.21a.7.7,0,0,1-.13.25c-.13.14.1.07.1.07l.17-.06.17,0a.23.23,0,0,1,.12,0,.21.21,0,0,1,.1.1l-.11.22a.63.63,0,0,0,0,.24c.06.12.18,0,.18,0s0-.12,0-.16a.8.8,0,0,0,0-.11c0-.08.22-.06.22-.06.33.14.39.67.39.67s-.08.1-.08.1l.07.13.5.18Z" style="fill:#00427a"></path><path d="M217.37,29.6l-.05-.13,0-.15c0-.12.21,0,.21,0l.13,0s0-.42,0-.42h-.24l-.21,0s-.11-.15-.05-.15c.44,0,.46-.61.46-.61,0-.15-.12-.07-.12-.07a.66.66,0,0,1-.46.57h-.2l-.13,0-.06-.06c.47-.25.55-.49.55-.49s0-.37,0-.37l0-.16c-.05-.06-.11,0-.11,0v.13a.55.55,0,0,1,0,.18c-.32.66-.61.44-.61.44l-.06-.07c.54-.07.45-1.16.45-1.16l0-.15-.06-.06h-.08a2.14,2.14,0,0,1,.08.49s-.15.71-.6.61c0,0-.18,0-.16-.06s0-.1.05-.11l.17-.08a1.56,1.56,0,0,0,.18-.17l.07-.14v-.28a.16.16,0,0,0-.07,0l0,.07a.54.54,0,0,1-.44.5l-.17.08h-.1l-.05,0a.92.92,0,0,0,.42-.58l0-.18c0-.08,0-.12,0-.11s-.06,0-.06,0-.05.06-.05.06l-.08.26a.83.83,0,0,1-.39.42c-.15,0-.08-.11-.08-.11.35-.37.32-.49.32-.49l0-.27s-.08,0-.08,0l-.05.14a.75.75,0,0,1-.35.54.24.24,0,0,0-.11,0l0-.08.12-.07.09-.11.09-.15a1.58,1.58,0,0,0,0-.19l0-.13a.08.08,0,0,0-.08,0s0,.08,0,.08a.75.75,0,0,1-.21.35s-.13,0-.08-.05.11-.38.11-.38v-.41l0-.1.25-.06.38,0,.09-.08-.16-.13-.34-.05-.16.07h-.31l-.06,0-.36-.23a.31.31,0,0,0-.14,0s-.07.07,0,.11a.83.83,0,0,1,.47,1.2s-.1.09-.1.09a.92.92,0,0,1-.26,0l-.17-.07-.15-.14v-.15l-.42.07,0,.09V27l.15.13c.05,0,.11.17.11.17s0,.3,0,.3l0,.9a1.62,1.62,0,0,0,.15.36.66.66,0,0,0,.14,0,1.17,1.17,0,0,1-.14-.54l.07-.49a2.18,2.18,0,0,0,.06-.22s0-.28,0-.28a.06.06,0,0,1,.06-.05.15.15,0,0,1,.08,0s0,.05,0,.05,0,.35,0,.35a2.25,2.25,0,0,0-.09,1.15l.21,0a1.06,1.06,0,0,1-.13-.43l0-.24.06-.25.05-.37,0-.06h.07V28l0,.31a1.47,1.47,0,0,0,.06.47l.13,0,0-.18,0-.24s0-.19,0-.22.08-.33.08-.33l.07-.1c.13,0,.14.12.14.12l-.13.66a1.84,1.84,0,0,0,0,.34,2.3,2.3,0,0,0,.12.23s.07,0,.07,0,.05-.72.05-.72a.11.11,0,0,1,.16,0,.24.24,0,0,0,.22-.19s.24-.23.25.21a.7.7,0,0,1-.13.25c-.13.14.1.07.1.07l.17-.06.17,0a.23.23,0,0,1,.12,0,.21.21,0,0,1,.1.1l-.11.22a.63.63,0,0,0,0,.24c.06.12.18,0,.18,0s0-.12,0-.16a.8.8,0,0,0,0-.11c0-.08.22-.06.22-.06.33.14.39.67.39.67s-.08.1-.08.1l.07.13.5.18Z" style="fill:none;stroke:#00427a;stroke-miterlimit:3.86400008201599;stroke-width:0.061999998986721px"></path><path d="M220.26,25.44l.15.25.21.68.12,1.69,0,.68v.55a.76.76,0,0,1-.16.37s-.07-.32-.07-.32v-.73l0-.84a5.47,5.47,0,0,0-.25-2Z" style="fill:#00427a"></path><path d="M220.26,25.44l.15.25.21.68.12,1.69,0,.68v.55a.76.76,0,0,1-.16.37s-.07-.32-.07-.32v-.73l0-.84a5.47,5.47,0,0,0-.25-2Z" style="fill:none;stroke:#00427a;stroke-miterlimit:3.86400008201599;stroke-width:0.061999998986721px"></path><path d="M217.85,25.84l.27.79.22.45.19.48c.06.07,0,.2,0,.2l.13.09L219,28s.11,0,.08-.07a2.41,2.41,0,0,0-.34-.4c-.1-.08-.12-.08-.13-.13s-.23-.74-.23-.74l-.16-.51-.21-.29Z" style="fill:#00427a"></path><path d="M209,40h-.28l0-1.12a3.33,3.33,0,0,0-.19-1.08l-.22-.54-.23-.41-.2-.45a1.12,1.12,0,0,1-.13-.45v-.14c0-.36-.27-.34-.27-.34l-1.17-.24-.61-.06c-1.32,0-1.12-1.49-1.12-1.49a.84.84,0,0,1,.16-.36l.16-.26c.09-.19-.11-.37-.11-.37l-.16-.08c-.11,0,0-.34,0-.34l0-.11,0-.16a.27.27,0,0,0-.08-.18c-.08-.12,0-.39,0-.39l0-.35,0-.16s0-.2,0-.18,0,0,0,0h-.21a.6.6,0,0,1-.64-.63,1.35,1.35,0,0,1,.34-.58l.32-.55.37-.55.42-.56a1,1,0,0,0,.1-.56v-.27c0-.33.11-.43.11-.43l.2-.33s.19-.48.21-.5a3,3,0,0,0,.15-1.23c.06,0-.49-.26-.52-.39a2.2,2.2,0,0,1,.09-1.32l.58-.51.43-.52c.55-.82,1.06-.84,1.06-.84a2.11,2.11,0,0,1,.61-.71,2,2,0,0,1,1.35-.2.38.38,0,0,1,.34.25s.1.76.48.93a.52.52,0,0,0,.74,0c.2-.09.27.14,0,.22a2.6,2.6,0,0,1-.28,0,.73.73,0,0,1-.9-.42l-.21-.52c-.08-.32-.49-.3-.49-.3l-.56,0a.67.67,0,0,0-.35.07,1.48,1.48,0,0,0-.32.38l-.1.13-.15.17-.13.1-.17.07a2.2,2.2,0,0,0-.78.68,3.64,3.64,0,0,1-.42.63l-.37.28a.83.83,0,0,0-.34.8l0,.41c0,.11.22.23.48.33a.28.28,0,0,1,.13.19l0,.34,0,.62-.11.45-.17.45-.17.31a.77.77,0,0,0-.08.42v.43c0,.28-.35.57-.35.57l-.31.39-.37.64-.13.17a4.09,4.09,0,0,0-.52.75c0,.16-.12.46.4.44l.44,0a1.41,1.41,0,0,1,.48.16.36.36,0,0,0,.43.1c.11,0,.17-.05.06-.33l-.09-.26,0,0a1.79,1.79,0,0,1,.29.67c-.33.21-.49.14-.49.14l-.34-.13-.26,0c-.22-.11-.09,0-.09,0,.14.18,0,.66,0,.66l0,.17s0,.13.09.14l.17,0a.2.2,0,0,1,.1.07c.15.22.22.15.22.15h.24c.05,0,.12.19,0,.19h-.28a.89.89,0,0,1-.2-.11c-.32-.14-.49.7-.08.6a1,1,0,0,1,.18.42c0,.15-.35.53-.35.53a1,1,0,0,0,0,.58c.05.49.48.83,1.28.83l1,0,.55,0a4.66,4.66,0,0,0,2.54-1.2l1.06-1.12c.46-.4.42,0,.42,0,.24.09-.37.7-.37.7l-1.37.93c-.57.37-.58.59-.58.59a3.46,3.46,0,0,1-.05.44s-.63.43-.73.4.55-.52.55-.52c.11-.24-.16-.14-.21-.12a1.83,1.83,0,0,1-1,.25v.32a2.57,2.57,0,0,0,.24.92l.28.49.19.39a3.31,3.31,0,0,1,.32,1Z" style="fill:#00427a"></path><path d="M212.56,24.24c-.05.1.17.29.17.29l.31.4a.82.82,0,0,1,.24.69c0,.41-.12.48-.19.7a3,3,0,0,0,.11.73c.06.15.22,1.06.22,1.06a6.76,6.76,0,0,0,.11.89,2.74,2.74,0,0,0,1.14,0c.48.22.44.79.48.79a.71.71,0,0,0,.17,0l.09-.21a1.45,1.45,0,0,0,.07-.23.53.53,0,0,1-.27-.15.42.42,0,0,1-.05-.28c0-.16-.28-.13-.28-.13-1.06.11-1.12,0-1.12,0a11.27,11.27,0,0,1-.26-1.52l-.18-.76a1.44,1.44,0,0,1,.17-.55,2.63,2.63,0,0,0,0-.72,2.23,2.23,0,0,0-.42-.65c-.21-.21-.18-.32-.18-.32a5.39,5.39,0,0,0,.46-1.36l.05-.45c-.06-.57-.23-.63-.23-.63a1.4,1.4,0,0,0-.34-.15,2.83,2.83,0,0,0-.74-.11,2.21,2.21,0,0,0-.4.05,1.59,1.59,0,0,0-.27.08s-.19.09,0,.1a5.35,5.35,0,0,1,.67-.06,2.92,2.92,0,0,1,.9.23c.39.11.14,1.08.14,1.08Z" style="fill:#00427a"></path><path d="M213.93,34.4l-.82,1L212,37.09l-.66,1.31-.84,3h.4a13.24,13.24,0,0,1,1.66-4.72L213.81,35l1.47-1.84L216.5,32S217.9,31,218,30.85s.23.33.23.33l.2.37c.21.67,0,.64,0,.64a.93.93,0,0,0-.67.41,1.46,1.46,0,0,0-.15,1.11.78.78,0,0,0-.86.44,1.82,1.82,0,0,0-.08,1.48,4.1,4.1,0,0,1,.08.85c0,.05,0,.54.18.65a.88.88,0,0,0,.33.17s.12.22.28.24c.34,0,.55-.39.57-.41l.4-.36a.66.66,0,0,1,.49-.07s.4,0,.4,0a.61.61,0,0,0,.52-.4s0,.92.66,1.11a.52.52,0,0,0-.05.26.74.74,0,0,0,.25.77,1.71,1.71,0,0,0,1.65,0,1.25,1.25,0,0,0,.52-1,3.12,3.12,0,0,0,0-.89,1,1,0,0,1,0-1.22,1.38,1.38,0,0,0,.31-.83,1,1,0,0,0-.28-.91.38.38,0,0,1-.17-.39l.07-.82a1.75,1.75,0,0,0-.16-.74c-.06-.19-.37-.33-.37-.33a2.72,2.72,0,0,0-.55,0,2.53,2.53,0,0,0-.74.14s.1-.17.06-.41a.7.7,0,0,1-.1-.61l.36-.51a3.82,3.82,0,0,0,.42-2,11.9,11.9,0,0,0-.49-2.89,21.55,21.55,0,0,0-1.3-3.16,4.93,4.93,0,0,0-3.21-1.94,15.87,15.87,0,0,0-2.94-.14,5,5,0,0,0-1.51.31,2.87,2.87,0,0,0-1.2.9s-.12.29-.08.31.08.13.08.13-.08.21-.08.21l-.27.4a3.36,3.36,0,0,0-.27.7l-.18.46-.16.61s-.35.7-.35.7a1.49,1.49,0,0,1-.27.69l-1.27,2a1,1,0,0,0-.13.64c0,.13.08.19.21.19l.48,0a.21.21,0,0,1,.24.18s0,.58,0,.63,0,.35,0,.35,0,.19.23.28c0,0,0,.06,0,.19a2.2,2.2,0,0,0-.07.41.12.12,0,0,0,.09.12c.27.11.26.31.26.31s-.22.58-.22.58a2.2,2.2,0,0,0-.08,1,1,1,0,0,0,.76.74c.68,0,1.06,0,1.06,0l.8-.07c.23,0,.24.39.24.39l.62,2.73c.21-.31.19-.3.19-.3l-.11-.61-.35-1.59c-.14-.75-.13-.54-.13-.62s.27-.11.27-.11c1.85-.32,2-.9,2.12-1a16.15,16.15,0,0,0,.78-2,.83.83,0,0,1,.3-.24.53.53,0,0,1,.37.06,1.46,1.46,0,0,1,.28.27,1.6,1.6,0,0,0,.42.18c.12,0,.54.21.58.23a1.43,1.43,0,0,1,.22.15,4,4,0,0,0,.47.14c-.09-.18,0-.21-.39-.47-.06,0-.94-.33-.94-.33a2.12,2.12,0,0,1-.4-.3A1.38,1.38,0,0,0,216,29c-.32-.06-.71.46-.71.46l-.13.28a7,7,0,0,1-.58,1.64c-.09.17-.13.48-.59.57a5.89,5.89,0,0,1-1.1.3,7,7,0,0,1-1.34.17l-.94,0c-1.64,0-1-1.25-1-1.25l.15-.36c0-.1.11-.05.2-.05.24,0,0-.21,0-.21a.33.33,0,0,1,0-.51s-.1,0-.1,0c-.21.13-.31,0-.31,0a.21.21,0,0,1,0-.31s.11-.11.5,0a1,1,0,0,0,.31,0c.17,0,.16-.15.16-.15-.21-.15-.16-.14-.26-.19s-.1.28-.44,0c-.18-.17-.21-.15-.23-.15-.19,0-.22.06-.27-.16l0-.78v-.23l.35,0a.6.6,0,0,0,.33.05.28.28,0,0,0,.2-.41c-.09.23-.56.1-.56.1a1,1,0,0,0-.8-.13c-.6.09-.32-.36-.32-.36l.57-.9s.62-.87,1-1.43a3.16,3.16,0,0,1,.18-.85,1.42,1.42,0,0,0,.32-.52c.33-1.1.39-1.32.39-1.32a.89.89,0,0,1,.52-.6.66.66,0,0,1,0-.81,2.94,2.94,0,0,1,.45-.38,4.86,4.86,0,0,1,2-.52,15.21,15.21,0,0,1,2.54.1,13.7,13.7,0,0,1,2.29.8,3,3,0,0,1,.9.84,11.82,11.82,0,0,1,1,1.91s.49,1.67.51,1.67a11.12,11.12,0,0,1,.43,3.05c-.08,1.26-.69,1.62-.69,1.62a.83.83,0,0,0-.09.32,1.44,1.44,0,0,0,0,.34.78.78,0,0,1,.12.48c0,.05-.12.32-.12.32s0,.21.35.14l.36-.07c.6-.08,1,0,1.17.7a3.88,3.88,0,0,0-.11,1.2,1.54,1.54,0,0,1,.46,1.16s0,.08-.21.35l-.35.57a1.45,1.45,0,0,0,.07,1,2.12,2.12,0,0,1,.1,1c-.25,1.25-2.49,1.06-1.86-.23-.53-.37-.57-.69-.57-.69l-.28-.8-.47.46c-.17.23-.61.23-.61.23l-.62-.05A.48.48,0,0,1,218,37c-.44.57-.65.21-.65.21-.48-.31-.41-1.46-.41-1.46a1,1,0,0,1,0-1.13.87.87,0,0,1,.88-.7V33.4a2,2,0,0,1,.17-.61.87.87,0,0,1,.49-.32.33.33,0,0,0,.32-.44l-.1-.49-.2-.71a2.19,2.19,0,0,0-.27-.42l-.25.16-1.42,1.09a20.25,20.25,0,0,0-2.59,2.74" style="fill:#00427a"></path><path d="M209.29,23.2a.93.93,0,0,1-.23.1l-.73.18s0,.05,0,.06.15.43.72.06l.52-.4h.88l-.12.34c.12-.09-.5.33-.5.33l-.27.17a1.24,1.24,0,0,1-.94.25.59.59,0,0,1-.38-.13l-.08-.06a1.59,1.59,0,0,0,1,0,2.77,2.77,0,0,0,1-.76c0-.18-.35-.06-.35-.06l-.22.12a5.42,5.42,0,0,0-.74.55.25.25,0,0,1-.22,0,.87.87,0,0,0-.53-.3h-.24c-.23.07-.19-.06-.19-.06s.12-.16.86-.31l.43-.08Zm-1.41,0c-.16.31-.32.14-.4,0Zm-1.49,0,0,0a1.41,1.41,0,0,0-.42.52l-.05.41c.07.16.26,0,.26,0a1,1,0,0,1,.15-.39,1,1,0,0,1,.64-.38,1.44,1.44,0,0,1,.27-.06c.2,0,.08.18.08.18a2.73,2.73,0,0,1-.4.11.65.65,0,0,0-.52.51,1.37,1.37,0,0,1-.22.66.69.69,0,0,0-.31-.5.8.8,0,0,1-.06-.28,1.67,1.67,0,0,1,.22-.81Z" style="fill:#00427a"></path><path d="M206.54,22.34a2.25,2.25,0,0,0,.41,0,1.91,1.91,0,0,1,.52.06,1.23,1.23,0,0,0,.28,0c.2,0,.08-.21.08-.21a1.23,1.23,0,0,0-.69-.16c-.52,0-.67.25-.67.25s0,.08.07.07m3,.86.3-.24a1.38,1.38,0,0,1,.66,0s0,.13-.08.26ZM209,21.6a.46.46,0,0,0-.26.1,2.17,2.17,0,0,0-.6.44s-.41.46-.43.68a.11.11,0,0,0,.06.11h.06a4.39,4.39,0,0,1,.44-.66s.59-.5,1-.29l.32.22a.64.64,0,0,0,.16.07,1.27,1.27,0,0,0,.37,0s.23,0,0-.14l-.11,0-.1,0a1,1,0,0,1-.4-.32.81.81,0,0,0-.21-.1h.46a1.23,1.23,0,0,0,.31.25s.26.07.57-.25h.4l0,0-.33.17s-.26.16-.28.32.31,0,.31,0a.33.33,0,0,1-.14.4,1.2,1.2,0,0,0-.46,0,1.14,1.14,0,0,0-.51.32,1.54,1.54,0,0,1-.39.36h-.37c.35-.09.32-.16.36-.23s0-.09-.08-.06l-.41.07h-.09a1.83,1.83,0,0,1,.89-.22c.11-.18.09-.15,0-.22a1,1,0,0,0-.39,0,1,1,0,0,0-.45.25l-.27.22-.29.18a1.21,1.21,0,0,1,.05-.14,2.38,2.38,0,0,1,.66-.53l.29-.11c.17-.21-.25-.17-.25-.17a1.2,1.2,0,0,0-.86.57s-.16.37-.18.39v0h-.4a.4.4,0,0,1-.06-.12l-.11-.06-.14,0a1,1,0,0,0-.78.21H206a.67.67,0,0,1,.11-.16,1.05,1.05,0,0,1,.44-.27,2.22,2.22,0,0,1,.92-.06.11.11,0,0,0,0-.19,2.66,2.66,0,0,0-1.07,0,.16.16,0,0,1-.17-.07,3.43,3.43,0,0,1,.32-.43,3.3,3.3,0,0,1,1.34,0c.36.08.21-.23.18-.24a.75.75,0,0,0-.36-.13Z" style="fill:#00427a"></path><path d="M208,20.9a.39.39,0,0,0,.11,0c.54,0,.58.37.58.37s.26.33.25-.13a.65.65,0,0,0-.64-.46.46.46,0,0,0-.32.1s0,.08,0,.12m2.7.7.07-.08.1-.12c.17,0,.4,0,.23.2Zm-3,0-.28-.05a1.39,1.39,0,0,1,1,0c.13,0,.13-.13.13-.13s-.34-.29-.32-.27a2,2,0,0,0-.78-.06l.51-.61.14,0a1.32,1.32,0,0,1,.49,0c.21.06.47.5.47.5l.13.19c.25.39.18,0,.18,0a.7.7,0,0,0,0-.12,2.44,2.44,0,0,0-.36-.7c-.08-.11-.39-.13-.39-.13-.61.07.3-.2.57-.07l.13.2.39,1a.79.79,0,0,0,.16.23h-.48a.74.74,0,0,0-.33,0Z" style="fill:#00427a"></path><path d="M205.9,28.43a1.45,1.45,0,0,0,.32,0c0-.06,0-.43,0-.43v-.19l0-.16.09-.12a.26.26,0,0,1,.13-.06h.19l.23,0,.16.08.29.12.2.28,0,.09.14.05.16.06s-.33-.53-.38-.58-.09-.07-.12-.06a.48.48,0,0,0-.19-.06l-.26-.11-.18-.1-.19,0h-.36l-.19,0-.06.08.07.19,0,.14V28l0,.2Z" style="fill:#00427a"></path><path d="M205.9,28.43a1.45,1.45,0,0,0,.32,0c0-.06,0-.43,0-.43v-.19l0-.16.09-.12a.26.26,0,0,1,.13-.06h.19l.23,0,.16.08.29.12.2.28,0,.09.14.05.16.06s-.33-.53-.38-.58-.09-.07-.12-.06a.48.48,0,0,0-.19-.06l-.26-.11-.18-.1-.19,0h-.36l-.19,0-.06.08.07.19,0,.14V28l0,.2Z" style="fill:none;stroke:#00427a;stroke-miterlimit:3.86400008201599;stroke-width:0.061999998986721px"></path><path d="M206.6,28.69H207l.15,0,.22-.14,0-.06,0-.08,0-.12-.09-.06-.09-.05-.08-.06-.1-.07-.09-.06-.06-.05-.1,0h-.12l0,0v0l0,0,.05,0,.06,0,.07,0,.09,0,.08,0,.07.05.05.07,0,.07-.1,0h-.07l0-.06,0,0,0-.05-.05,0h-.12l-.06,0v.22h.22l0,0H207l.08.06v.07l-.08,0h-.06l-.09,0h-.18l-.05,0Z" style="fill:#00427a"></path><path d="M206.6,28.69H207l.15,0,.22-.14,0-.06,0-.08,0-.12-.09-.06-.09-.05-.08-.06-.1-.07-.09-.06-.06-.05-.1,0h-.12l0,0v0l0,0,.05,0,.06,0,.07,0,.09,0,.08,0,.07.05.05.07,0,.07-.1,0h-.07l0-.06,0,0,0-.05-.05,0h-.12l-.06,0v.22h.22l0,0H207l.08.06v.07l-.08,0h-.06l-.09,0h-.18l-.05,0Z" style="fill:none;stroke:#00427a;stroke-miterlimit:3.86400008201599;stroke-width:0.061999998986721px"></path><path d="M206.67,28.89V29l0,.06.06.05h0l.08,0,.08,0L207,29l0,0v0s0,0,0,0h-.18l0,0h-.1Z" style="fill:#00427a"></path><path d="M206.67,28.89V29l0,.06.06.05h0l.08,0,.08,0L207,29l0,0v0s0,0,0,0h-.18l0,0h-.1Z" style="fill:none;stroke:#00427a;stroke-miterlimit:3.86400008201599;stroke-width:0.061999998986721px"></path><path d="M217.68,30.15l-.15.11-.13.1-.19.13-.26.17-.24.2-.26.22-.29.23-.26.18-.23.19-.16.15-.14,0s0-.06,0-.06a.58.58,0,0,1,.1-.08l.15-.12.2-.13.19-.14.23-.18.17-.15.21-.17.18-.17.24-.21.31-.3.11-.16.1-.07h.11l.08,0Z" style="fill:#00427a"></path><path d="M217.68,30.15l-.15.11-.13.1-.19.13-.26.17-.24.2-.26.22-.29.23-.26.18-.23.19-.16.15-.14,0s0-.06,0-.06a.58.58,0,0,1,.1-.08l.15-.12.2-.13.19-.14.23-.18.17-.15.21-.17.18-.17.24-.21.31-.3.11-.16.1-.07h.11l.08,0Z" style="fill:none;stroke:#00427a;stroke-miterlimit:3.86400008201599;stroke-width:0.061999998986721px"></path><path d="M216.24,31.54s0,.06,0,.06l-.09.13-.65.52-.16.13-.18.14-.14.13-.1.08a.06.06,0,0,1-.08,0s.06-.09.06-.09l.25-.18.21-.18.2-.16.28-.21.15-.11.11-.12,0-.05c.05-.12.08-.09.08-.09" style="fill:#00427a"></path><path d="M216.24,31.54s0,.06,0,.06l-.09.13-.65.52-.16.13-.18.14-.14.13-.1.08a.06.06,0,0,1-.08,0s.06-.09.06-.09l.25-.18.21-.18.2-.16.28-.21.15-.11.11-.12,0-.05C216.21,31.51,216.24,31.54,216.24,31.54Z" style="fill:none;stroke:#00427a;stroke-miterlimit:3.86400008201599;stroke-width:0.061999998986721px"></path><polygon points="217.17 29.88 217.13 29.93 217.09 29.98 216.96 30.09 216.83 30.2 216.67 30.34 216.57 30.42 216.43 30.55 216.3 30.67 216.18 30.79 216.09 30.86 216.01 30.93 215.92 31.02 215.85 31.07 215.79 31.09 215.73 31.08 215.72 31.04 215.77 30.97 215.88 30.88 216 30.79 216.14 30.66 216.29 30.52 216.42 30.37 216.57 30.23 216.72 30.09 216.86 29.94 216.97 29.8 217.02 29.79 217.08 29.79 217.12 29.81 217.17 29.88" style="fill:#00427a"></polygon><polygon points="217.17 29.88 217.13 29.93 217.09 29.98 216.96 30.09 216.83 30.2 216.67 30.34 216.57 30.42 216.43 30.55 216.3 30.67 216.18 30.79 216.09 30.86 216.01 30.93 215.92 31.02 215.85 31.07 215.79 31.09 215.73 31.08 215.72 31.04 215.77 30.97 215.88 30.88 216 30.79 216.14 30.66 216.29 30.52 216.42 30.37 216.57 30.23 216.72 30.09 216.86 29.94 216.97 29.8 217.02 29.79 217.08 29.79 217.12 29.81 217.17 29.88" style="fill:none;stroke:#00427a;stroke-miterlimit:3.86400008201599;stroke-width:0.061999998986721px"></polygon><path d="M216.81,29.72l-.08.05,0,.07-.07.07-.05.06-.1.09-.05.06-.06.07-.08.08-.06.06,0,0,0,0c-.06,0-.09,0-.09,0a.09.09,0,0,1,0-.1l0-.07.06-.07.07-.06.08-.09.08-.09.05-.07.05-.05.06,0v-.09l.05,0h.14Z" style="fill:#00427a"></path><path d="M216.81,29.72l-.08.05,0,.07-.07.07-.05.06-.1.09-.05.06-.06.07-.08.08-.06.06,0,0,0,0c-.06,0-.09,0-.09,0a.09.09,0,0,1,0-.1l0-.07.06-.07.07-.06.08-.09.08-.09.05-.07.05-.05.06,0v-.09l.05,0h.14Z" style="fill:none;stroke:#00427a;stroke-miterlimit:3.86400008201599;stroke-width:0.061999998986721px"></path><path d="M215.27,29.54l-.12.06-.19.29-.36.65-.59.83a1,1,0,0,1-.45.45l-.5.12.38-.28a2.43,2.43,0,0,0,.56-.52l.27-.33.21-.3.17-.26.19-.31a4.51,4.51,0,0,0,.18-.61h.09l.07.06,0,.06Z" style="fill:#00427a"></path><path d="M215.27,29.54l-.12.06-.19.29-.36.65-.59.83a1,1,0,0,1-.45.45l-.5.12.38-.28a2.43,2.43,0,0,0,.56-.52l.27-.33.21-.3.17-.26.19-.31a4.51,4.51,0,0,0,.18-.61h.09l.07.06,0,.06Z" style="fill:none;stroke:#00427a;stroke-miterlimit:3.86400008201599;stroke-width:0.061999998986721px"></path><polygon points="215 29.24 214.94 29.34 214.76 29.57 214.64 29.75 214.46 30.01 214.31 30.2 214.16 30.38 214.01 30.57 213.83 30.77 213.64 30.98 213.48 31.14 213.31 31.31 213.14 31.47 212.99 31.61 212.63 31.99 212.41 32.02 212.69 31.74 212.85 31.6 213.1 31.38 213.25 31.24 213.43 31.08 213.53 30.98 213.62 30.88 213.75 30.73 213.9 30.56 214.01 30.39 214.22 30.12 214.35 29.97 214.57 29.63 214.8 29.25 214.88 29.09 215 29.16 215 29.24" style="fill:#00427a"></polygon><polygon points="215 29.24 214.94 29.34 214.76 29.57 214.64 29.75 214.46 30.01 214.31 30.2 214.16 30.38 214.01 30.57 213.83 30.77 213.64 30.98 213.48 31.14 213.31 31.31 213.14 31.47 212.99 31.61 212.63 31.99 212.41 32.02 212.69 31.74 212.85 31.6 213.1 31.38 213.25 31.24 213.43 31.08 213.53 30.98 213.62 30.88 213.75 30.73 213.9 30.56 214.01 30.39 214.22 30.12 214.35 29.97 214.57 29.63 214.8 29.25 214.88 29.09 215 29.16 215 29.24" style="fill:none;stroke:#00427a;stroke-miterlimit:3.86400008201599;stroke-width:0.061999998986721px"></polygon><path d="M214.72,28.94l-.08.13-.08.14-.19.23-.23.28-.35.44-.22.27-.15.18-.33.37-.14.14-.31.3-.15.16-.25.22c-.39.32-.51.33-.51.33l-.28,0,.17-.12.12-.05.13-.07.15-.11.19-.14.14-.14.34-.33.22-.21.19-.21.27-.3.26-.29.2-.25.36-.47.36-.52,0-.07c.17-.13.14.07.14.07" style="fill:#00427a"></path><path d="M214.72,28.94l-.08.13-.08.14-.19.23-.23.28-.35.44-.22.27-.15.18-.33.37-.14.14-.31.3-.15.16-.25.22c-.39.32-.51.33-.51.33l-.28,0,.17-.12.12-.05.13-.07.15-.11.19-.14.14-.14.34-.33.22-.21.19-.21.27-.3.26-.29.2-.25.36-.47.36-.52,0-.07C214.75,28.74,214.72,28.94,214.72,28.94Z" style="fill:none;stroke:#00427a;stroke-miterlimit:3.86400008201599;stroke-width:0.061999998986721px"></path><path d="M211.81,31.47l-.12.08-.16.11-.19.09-.14.07-.12.05-.16.06-.22.05-.29,0h-.22s-.32.08,0,.13h.18l.24,0a2,2,0,0,0,.51-.12l.32-.13.51-.34.4-.36c.08-.15-.53.31-.53.31" style="fill:#00427a"></path><path d="M211.81,31.47l-.12.08-.16.11-.19.09-.14.07-.12.05-.16.06-.22.05-.29,0h-.22s-.32.08,0,.13h.18l.24,0a2,2,0,0,0,.51-.12l.32-.13.51-.34.4-.36C212.42,31,211.81,31.47,211.81,31.47Z" style="fill:none;stroke:#00427a;stroke-miterlimit:3.86400008201599;stroke-width:0.061999998986721px"></path><path d="M208.67,34.57a2.93,2.93,0,0,1-.75.11l-1.89.08a1.76,1.76,0,0,1-.45-.06l.45-.06c.58,0,2.41-.23,2.41-.23l.78-.11Z" style="fill:#00427a"></path><path d="M208.67,34.57a2.93,2.93,0,0,1-.75.11l-1.89.08a1.76,1.76,0,0,1-.45-.06l.45-.06c.58,0,2.41-.23,2.41-.23l.78-.11Z" style="fill:none;stroke:#00427a;stroke-miterlimit:3.86400008201599;stroke-width:0.061999998986721px"></path><path d="M209.41,34l-.81.17-1.07.14-.59,0a.26.26,0,0,1-.15,0s0,0,0,0l.09,0,.63,0,1.26-.18.84-.19.36-.09Z" style="fill:#00427a"></path><path d="M209.41,34l-.81.17-1.07.14-.59,0a.26.26,0,0,1-.15,0s0,0,0,0l.09,0,.63,0,1.26-.18.84-.19.36-.09Z" style="fill:none;stroke:#00427a;stroke-miterlimit:3.86400008201599;stroke-width:0.061999998986721px"></path><path d="M210.86,33.32l-.79.16-.8.16-1.05.16a1.79,1.79,0,0,1-.43,0c-.07,0,0,0,0,0s.08-.09.11-.09H208a8,8,0,0,0,.82-.1l.79-.15.67-.15.68-.16Z" style="fill:#00427a"></path><path d="M210.86,33.32l-.79.16-.8.16-1.05.16a1.79,1.79,0,0,1-.43,0c-.07,0,0,0,0,0s.08-.09.11-.09H208a8,8,0,0,0,.82-.1l.79-.15.67-.15.68-.16Z" style="fill:none;stroke:#00427a;stroke-miterlimit:3.86400008201599;stroke-width:0.061999998986721px"></path><polygon points="209.21 29.94 209.13 30 209.02 30.06 208.88 30.14 208.72 30.24 208.55 30.38 208.48 30.43 208.41 30.49 208.37 30.52 208.38 30.55 208.49 30.52 208.53 30.49 208.62 30.43 208.8 30.32 208.92 30.25 209.05 30.18 209.13 30.13 209.22 30.1 209.33 30.1 209.43 30.13 209.44 30.03 209.39 29.9 209.3 29.88 209.21 29.94" style="fill:#00427a"></polygon><polygon points="209.43 30.13 209.33 30.1 209.22 30.1 209.13 30.13 209.05 30.18 208.92 30.25 208.8 30.32 208.62 30.43 208.53 30.49 208.49 30.52 208.38 30.55 208.37 30.52 208.41 30.49 208.48 30.43 208.55 30.38 208.72 30.24 208.88 30.14 209.02 30.06 209.13 30 209.21 29.94 209.3 29.88 209.39 29.9 209.44 30.03 209.43 30.13" style="fill:none;stroke:#00427a;stroke-miterlimit:3.86400008201599;stroke-width:0.061999998986721px"></polygon><path d="M209.36,29.68l-.12,0-.07.05-.14.09-.07,0-.15.08-.09.06-.07.08-.07,0-.11,0-.07,0s-.07,0-.07,0,0,0,0,0l.12-.07.21-.17.24-.18.21-.13.17-.07s.05-.09.05-.09l.08,0,.14.11,0,.09a.89.89,0,0,1,0,.1.44.44,0,0,1-.13,0" style="fill:#00427a"></path><path d="M209.36,29.68l-.12,0-.07.05-.14.09-.07,0-.15.08-.09.06-.07.08-.07,0-.11,0-.07,0s-.07,0-.07,0,0,0,0,0l.12-.07.21-.17.24-.18.21-.13.17-.07s.05-.09.05-.09l.08,0,.14.11,0,.09a.89.89,0,0,1,0,.1A.44.44,0,0,1,209.36,29.68Z" style="fill:none;stroke:#00427a;stroke-miterlimit:3.86400008201599;stroke-width:0.061999998986721px"></path><path d="M209.16,28.93l-.09.06-.13.06-.18.11-.14.09-.11.08-.07,0-.13.05s-.05-.05,0-.07l.09-.08.12-.06.15-.12.12-.09.12-.07.1-.07.08-.05.06,0,.06-.08V28.6h-.08l-.09,0-.15.11-.21.13-.11.08-.08.07a.43.43,0,0,1-.11,0h-.09a.07.07,0,0,1-.07-.05.28.28,0,0,1,.1-.08l.28-.14.13-.11.12-.08.11-.08.11,0,.08,0h.05l.07.15v.15Z" style="fill:#00427a"></path><path d="M209.16,28.93l-.09.06-.13.06-.18.11-.14.09-.11.08-.07,0-.13.05s-.05-.05,0-.07l.09-.08.12-.06.15-.12.12-.09.12-.07.1-.07.08-.05.06,0,.06-.08V28.6h-.08l-.09,0-.15.11-.21.13-.11.08-.08.07a.43.43,0,0,1-.11,0h-.09a.07.07,0,0,1-.07-.05.28.28,0,0,1,.1-.08l.28-.14.13-.11.12-.08.11-.08.11,0,.08,0h.05l.07.15v.15Z" style="fill:none;stroke:#00427a;stroke-miterlimit:3.86400008201599;stroke-width:0.061999998986721px"></path><path d="M209.16,28.11l-.15.09-.15.09-.15.07-.09.07-.12.07-.1.06-.09,0-.09,0s0,0,0,0a.33.33,0,0,1,0-.06l.12-.06s.13-.07.14-.09l.09-.09.11-.05.13-.09a.52.52,0,0,0,.12-.07A.13.13,0,0,1,209,28a.27.27,0,0,1,.07-.06s.06,0,.07,0l.05.06Z" style="fill:#00427a"></path><path d="M209.16,28.11l-.15.09-.15.09-.15.07-.09.07-.12.07-.1.06-.09,0-.09,0s0,0,0,0a.33.33,0,0,1,0-.06l.12-.06s.13-.07.14-.09l.09-.09.11-.05.13-.09a.52.52,0,0,0,.12-.07A.13.13,0,0,1,209,28a.27.27,0,0,1,.07-.06s.06,0,.07,0l.05.06Z" style="fill:none;stroke:#00427a;stroke-miterlimit:3.86400008201599;stroke-width:0.061999998986721px"></path><path d="M213.49,27.91l-.09,0-.12.07-.1.05-.08.05-.1.06-.1,0-.13.06-.1,0-.1,0s0,0-.07,0a.18.18,0,0,1,0,0l.06,0,.16-.08.2-.11.17-.1.14-.07.1-.06.09,0,.08,0Z" style="fill:#00427a"></path><path d="M213.49,27.91l-.09,0-.12.07-.1.05-.08.05-.1.06-.1,0-.13.06-.1,0-.1,0s0,0-.07,0a.18.18,0,0,1,0,0l.06,0,.16-.08.2-.11.17-.1.14-.07.1-.06.09,0,.08,0Z" style="fill:none;stroke:#00427a;stroke-miterlimit:3.86400008201599;stroke-width:0.061999998986721px"></path><polygon points="213.24 27.42 212.95 27.61 212.62 27.81 212.42 27.92 212.11 28.08 211.99 28.13 211.92 28.21 211.99 28.24 212.13 28.2 212.22 28.14 212.46 28.04 212.75 27.89 212.88 27.83 213.03 27.71 213.17 27.63 213.3 27.54 213.38 27.52 213.37 27.41 213.32 27.36 213.24 27.42" style="fill:#00427a"></polygon><polygon points="213.38 27.52 213.3 27.54 213.17 27.63 213.03 27.71 212.88 27.83 212.75 27.89 212.46 28.04 212.22 28.14 212.13 28.2 211.99 28.24 211.92 28.21 211.99 28.13 212.11 28.08 212.42 27.92 212.62 27.81 212.95 27.6 213.24 27.42 213.32 27.36 213.37 27.41 213.38 27.52" style="fill:none;stroke:#00427a;stroke-miterlimit:3.86400008201599;stroke-width:0.061999998986721px"></polygon><polygon points="213.34 27.2 213.22 27.2 213.14 27.27 213.04 27.36 212.95 27.43 212.82 27.51 212.63 27.61 212.43 27.71 212.24 27.79 212 27.9 211.82 27.98 211.64 28.05 211.56 28.07 211.52 28.03 211.55 27.96 211.69 27.9 211.87 27.84 212.21 27.67 212.55 27.5 212.8 27.34 212.97 27.24 213.05 27.18 213.13 27.14 213.24 27.06 213.33 27.04 213.34 27.2" style="fill:#00427a"></polygon><polygon points="213.34 27.2 213.22 27.2 213.14 27.27 213.04 27.36 212.95 27.43 212.82 27.51 212.63 27.61 212.43 27.71 212.24 27.79 212 27.9 211.82 27.98 211.64 28.05 211.56 28.07 211.52 28.03 211.55 27.96 211.69 27.9 211.87 27.84 212.21 27.67 212.55 27.5 212.8 27.34 212.97 27.24 213.05 27.18 213.13 27.14 213.24 27.06 213.33 27.04 213.34 27.2" style="fill:none;stroke:#00427a;stroke-miterlimit:3.86400008201599;stroke-width:0.061999998986721px"></polygon><path d="M213.27,26.82l-.16,0-.1,0-.17.1-.2.12-.24.14-.26.13-.18.1-.24.12-.15.07-.19.07-.13.05-.13,0h-.24l-.09,0,0-.06.11,0,.26-.06.33-.1.26-.13.37-.21.38-.22.21-.11.19-.11a.54.54,0,0,1,.11-.06.2.2,0,0,0,.06-.07.76.76,0,0,0,0-.11l.06,0,.05.09Z" style="fill:#00427a"></path><path d="M213.27,26.82l-.16,0-.1,0-.17.1-.2.12-.24.14-.26.13-.18.1-.24.12-.15.07-.19.07-.13.05-.13,0h-.24l-.09,0,0-.06.11,0,.26-.06.33-.1.26-.13.37-.21.38-.22.21-.11.19-.11a.54.54,0,0,1,.11-.06.2.2,0,0,0,.06-.07.76.76,0,0,0,0-.11l.06,0,.05.09Z" style="fill:none;stroke:#00427a;stroke-miterlimit:3.86400008201599;stroke-width:0.061999998986721px"></path><path d="M209.3,29.3l-.11,0-.08.06-.15.08-.11.07-.11.07-.11.06,0,0-.09.08-.08,0-.09,0h-.06s0-.05,0-.06l.1-.08.12-.07.1-.08.08-.06.11-.08.12-.06.09-.07.05,0,.06,0,0,0,.1,0,0,0Z" style="fill:#00427a"></path><path d="M209.3,29.3l-.11,0-.08.06-.15.08-.11.07-.11.07-.11.06,0,0-.09.08-.08,0-.09,0h-.06s0-.05,0-.06l.1-.08.12-.07.1-.08.08-.06.11-.08.12-.06.09-.07.05,0,.06,0,0,0,.1,0,0,0Z" style="fill:none;stroke:#00427a;stroke-miterlimit:3.86400008201599;stroke-width:0.061999998986721px"></path><path d="M209.3,29.3l-.11,0-.08.06-.15.08-.11.07-.11.07-.11.06,0,0-.09.08-.08,0-.09,0c-.06,0-.06-.07,0-.08l.1-.08.12-.07.1-.08.08-.06.11-.08.12-.06.09-.07.05,0,.06,0,0,0,.1,0,0,0Z" style="fill:#00427a"></path><path d="M209.3,29.3l-.11,0-.08.06-.15.08-.11.07-.11.07-.11.06,0,0-.09.08-.08,0-.09,0c-.06,0-.06-.07,0-.08l.1-.08.12-.07.1-.08.08-.06.11-.08.12-.06.09-.07.05,0,.06,0,0,0,.1,0,0,0Z" style="fill:none;stroke:#00427a;stroke-miterlimit:3.86400008201599;stroke-width:0.061999998986721px"></path><path d="M208.66,36.28l0-.07.05-.09.06,0,.05,0,0-.1-.08,0-.09,0-.06,0-.06,0,0,.24Z" style="fill:#00427a"></path><path d="M199.36,40.8a.31.31,0,0,0-.38-.5.32.32,0,0,0-.06.44.33.33,0,0,0,.44.06" style="fill:#00427a"></path><polygon points="202.16 44.55 202.02 44.42 201.79 44.7 200.72 43.8 203.23 43.16 203.3 43.07 201.87 41.87 201.94 41.79 201.8 41.67 201.42 42.12 201.56 42.24 201.74 42.03 202.75 42.88 200.24 43.53 200.17 43.61 201.8 44.98 202.16 44.55" style="fill:#00427a"></polygon><path d="M206.66,45.11l-.93-.51-.1.19L206,45l-.63,1.15a.69.69,0,0,1-1,.31.65.65,0,0,1-.21-.95l.64-1.15.35.19.1-.18-1-.58-.11.18.35.19-.69,1.26a.89.89,0,0,0,.44,1.22.93.93,0,0,0,1.34-.35l.65-1.16.34.19Z" style="fill:#00427a"></path><path d="M209.15,46.16l.36.09a.37.37,0,0,1,.29.49.42.42,0,0,1-.53.33L209,47Zm-.25,1,.36.09c.34.09.47.29.39.61s-.28.39-.62.31l-.36-.09Zm.26,1.26c.49.12.82,0,.92-.43s-.13-.68-.61-.82a.59.59,0,0,0,.77-.36c.09-.36-.13-.66-.56-.77l-1.25-.31,0,.19.38.1-.5,2-.38-.1,0,.19Z" style="fill:#00427a"></path><polygon points="213.73 48.45 213.54 48.44 213.53 48.72 212.63 48.69 212.66 47.77 213.34 47.79 213.33 48.05 213.52 48.06 213.55 47.33 213.35 47.33 213.35 47.58 212.67 47.55 212.7 46.68 213.57 46.71 213.56 46.98 213.75 46.99 213.77 46.4 213.57 46.39 213.57 46.5 211.92 46.44 211.91 46.63 212.3 46.65 212.23 48.69 211.84 48.67 211.83 48.87 213.71 48.93 213.73 48.45" style="fill:#00427a"></polygon><path d="M216.05,46.51l.37-.06a.39.39,0,0,1,.48.39.42.42,0,0,1-.33.54l-.37.06ZM218,48.26l-.15,0a.36.36,0,0,1-.33-.15l-.59-.62a.67.67,0,0,0,.45-.76c-.07-.42-.37-.6-.88-.52l-1.22.19,0,.21.39-.06.31,2-.38.06,0,.19,1.17-.18,0-.19-.39.06-.14-.86.26,0,.69.74a.36.36,0,0,0,.43.16l.38-.06Z" style="fill:#00427a"></path><polygon points="221.16 46.76 220.98 46.83 221.1 47.13 220.27 47.44 219.55 45.57 219.92 45.43 219.84 45.23 218.74 45.66 218.81 45.85 219.18 45.71 219.91 47.6 219.54 47.74 219.61 47.92 221.35 47.26 221.16 46.76" style="fill:#00427a"></polygon><polygon points="223.6 45.78 223.26 45.99 222.22 44.25 222.55 44.05 222.45 43.87 221.43 44.48 221.53 44.66 221.87 44.46 222.92 46.19 222.58 46.4 222.68 46.56 223.7 45.95 223.6 45.78" style="fill:#00427a"></polygon><polygon points="225.6 41.59 225.89 41.32 225.74 41.16 224.97 41.88 225.11 42.04 225.41 41.77 226.43 42.87 224.18 42.62 223.69 43.08 223.83 43.24 224.1 42.99 224.27 43.01 225.56 44.4 225.27 44.66 225.4 44.81 226.17 44.09 226.04 43.94 225.75 44.22 224.69 43.08 227.03 43.35 227.14 43.24 225.6 41.59" style="fill:#00427a"></polygon><path d="M228,40.19a.31.31,0,1,0,.07.44.32.32,0,0,0-.07-.44" style="fill:#00427a"></path><polygon points="197.4 35.34 197.56 35.7 195.7 36.53 195.54 36.17 195.36 36.24 195.84 37.33 196.02 37.25 195.86 36.9 196.68 36.53 197.27 37.84 196.44 38.21 196.28 37.85 196.11 37.93 196.59 39.01 196.77 38.93 196.61 38.57 198.47 37.74 198.63 38.1 198.81 38.02 198.33 36.94 198.15 37.02 198.31 37.38 197.46 37.76 196.88 36.45 197.72 36.07 197.88 36.42 198.06 36.34 197.58 35.26 197.4 35.34" style="fill:#00427a"></polygon><path d="M194.37,31.43l.17,1,.21,0-.06-.39,1.29-.21a.68.68,0,0,1,.83.56.65.65,0,0,1-.61.75l-1.31.2-.06-.39-.21,0,.19,1.18.21,0-.07-.4,1.42-.22a.89.89,0,0,0,.69-1.1.93.93,0,0,0-1.1-.84l-1.32.21-.06-.39Z" style="fill:#00427a"></path><polygon points="196.92 26.32 196.87 26.71 194.86 26.46 194.91 26.07 194.7 26.04 194.6 26.86 196.26 27.91 194.39 28.52 194.3 29.31 194.51 29.33 194.56 28.94 196.56 29.19 196.52 29.58 196.71 29.6 196.84 28.55 196.65 28.53 196.6 28.92 194.96 28.72 196.94 28.08 195.08 26.89 196.82 27.1 196.77 27.5 196.97 27.52 197.11 26.34 196.92 26.32" style="fill:#00427a"></polygon><path d="M195.77,23.28l.13-.35a.37.37,0,0,1,.53-.22.4.4,0,0,1,.25.56l-.12.32Zm1,.38.14-.35a.44.44,0,0,1,.64-.31c.28.11.36.33.24.65l-.14.35Zm1.28-.11c.18-.47.07-.82-.31-1s-.69,0-.89.51a.59.59,0,0,0-.27-.82c-.34-.13-.66,0-.82.47l-.46,1.2.18.07.14-.37,1.9.73-.14.37.19.07Z" style="fill:#00427a"></path><path d="M197.82,19.22a1.1,1.1,0,0,1,1.74,1.22,1.11,1.11,0,0,1-1.74-1.22m1.92,1.34a1.28,1.28,0,1,0-1.77.29,1.31,1.31,0,0,0,1.77-.29" style="fill:#00427a"></path><polygon points="202.36 16.72 202.23 16.85 202.45 17.08 201.81 17.69 200.42 16.25 200.7 15.97 200.56 15.82 199.7 16.65 199.85 16.8 200.13 16.52 201.54 17.98 201.25 18.25 201.39 18.39 202.73 17.1 202.36 16.72" style="fill:#00427a"></polygon><path d="M204.16,15.79l-1.06-1.71.35-.22a1,1,0,0,1,1.06,1.71Zm-.56.6,1.06-.66a1.22,1.22,0,1,0-1.29-2.06l-1.06.66.1.16.34-.21L203.83,16l-.33.21Z" style="fill:#00427a"></path><polygon points="208.43 13.8 208.01 13.94 207.35 12.03 208.08 11.78 208.17 12.06 208.36 11.99 208.16 11.42 207.97 11.48 208.01 11.58 206.18 12.21 206.15 12.11 205.97 12.17 206.16 12.75 206.34 12.69 206.25 12.41 206.97 12.16 207.63 14.07 207.21 14.22 207.27 14.4 208.5 13.98 208.43 13.8" style="fill:#00427a"></polygon><rect x="209.65" y="12.13" width="1" height="0.4" transform="translate(1.49 40.22) rotate(-10.97)" style="fill:#00427a"></rect><path d="M215.05,10.82l-1.06,0V11h.4l0,1.32a.67.67,0,0,1-.69.71.64.64,0,0,1-.63-.73l0-1.32h.39v-.21l-1.2,0V11h.4l0,1.43a.89.89,0,0,0,.95.88.94.94,0,0,0,1-.94l0-1.34h.4Z" style="fill:#00427a"></path><polygon points="219.35 11.91 219.73 12.01 219.78 11.8 218.76 11.53 218.71 11.73 219.09 11.84 218.7 13.29 217.72 11.25 217.06 11.08 217.01 11.28 217.37 11.38 217.43 11.53 216.94 13.36 216.56 13.26 216.51 13.44 217.53 13.72 217.58 13.53 217.2 13.43 217.6 11.93 218.61 14.05 218.76 14.09 219.35 11.91" style="fill:#00427a"></polygon><polygon points="221.69 15.16 221.34 14.97 222.29 13.19 222.64 13.37 222.74 13.19 221.69 12.63 221.59 12.81 221.94 13 220.99 14.79 220.64 14.6 220.55 14.77 221.6 15.33 221.69 15.16" style="fill:#00427a"></polygon><polygon points="225.61 15.38 225.79 15.51 225.92 15.35 225.31 14.89 225.18 15.05 225.42 15.23 223.91 16.13 224.35 14.43 224.61 14.63 224.74 14.46 223.93 13.84 223.8 14.01 224 14.17 223.39 16.56 223.49 16.64 225.61 15.38" style="fill:#00427a"></polygon><polygon points="226.96 19.22 226.83 19.08 226.62 19.26 226.02 18.6 226.71 17.98 227.16 18.48 226.96 18.66 227.09 18.8 227.63 18.32 227.5 18.17 227.31 18.34 226.86 17.84 227.52 17.25 228.09 17.9 227.89 18.08 228.02 18.22 228.45 17.82 228.32 17.68 228.25 17.75 227.14 16.52 227 16.65 227.26 16.95 225.74 18.31 225.48 18.02 225.34 18.15 226.59 19.55 226.96 19.22" style="fill:#00427a"></polygon><path d="M229.82,20.43l.18.32a.4.4,0,0,1-.2.59.42.42,0,0,1-.62-.13l-.18-.33Zm-1,2.39-.07-.13a.36.36,0,0,1,0-.36l.39-.78a.65.65,0,0,0,.86.17c.37-.21.44-.56.19-1l-.6-1.09-.19.1.2.35-1.78,1-.19-.35-.17.1.58,1,.17-.1-.19-.34.76-.42.13.22-.47.9a.38.38,0,0,0,0,.47l.19.33Z" style="fill:#00427a"></path><path d="M229.28,24.25a1.08,1.08,0,0,0,0,.62.71.71,0,0,0,.89.51c.33-.1.45-.28.55-.78,0-.13,0-.27.09-.43s.09-.28.22-.32a.37.37,0,0,1,.47.28.79.79,0,0,1,0,.46l-.25.09.06.18.6-.19-.06-.19-.12,0a.91.91,0,0,0,0-.49.71.71,0,0,0-.87-.51c-.3.1-.42.31-.5.82s-.16.66-.35.72a.4.4,0,0,1-.48-.32,1.09,1.09,0,0,1,0-.57l.26-.08-.06-.18-.62.2.06.18Z" style="fill:#00427a"></path><polygon points="230.26 28.16 230.21 27.77 232.21 27.48 232.27 27.87 232.48 27.84 232.31 26.67 232.1 26.7 232.16 27.09 230.15 27.37 230.1 26.98 229.9 27.01 230.07 28.18 230.26 28.16" style="fill:#00427a"></polygon><polygon points="230.3 31.23 230.32 30.79 232.34 30.86 232.32 31.62 232.02 31.61 232.01 31.81 232.62 31.83 232.63 31.64 232.53 31.63 232.59 29.7 232.7 29.7 232.71 29.51 232.1 29.49 232.09 29.68 232.38 29.69 232.36 30.46 230.33 30.39 230.35 29.94 230.15 29.93 230.11 31.23 230.3 31.23" style="fill:#00427a"></polygon><path d="M230.72,33.64l.8.61-1,.15Zm2,.82a.27.27,0,0,0,.32-.2.26.26,0,1,0-.51-.12.27.27,0,0,0,.19.32m-.23.9a.28.28,0,0,0,.33-.19.27.27,0,1,0-.33.19m-2.93-.2.05-.22,2.48-.38,0-.13-2-1.54.05-.2-.19,0-.18.71.19,0,.07-.29.5.38-.23.93-.61.09.05-.23-.19,0-.21.86Z" style="fill:#00427a"></path><polygon points="228.44 37.71 228.63 37.3 230.46 38.16 230.14 38.85 229.87 38.73 229.79 38.91 230.34 39.16 230.43 38.99 230.33 38.94 231.15 37.19 231.24 37.23 231.32 37.06 230.77 36.8 230.69 36.98 230.96 37.1 230.63 37.8 228.8 36.94 228.99 36.53 228.81 36.45 228.26 37.63 228.44 37.71" style="fill:#00427a"></polygon><path d="M25.26,27.9H23.61v.32h.61v2.05a1.06,1.06,0,0,1-1.06,1.14,1,1,0,0,1-1-1.13V28.22h.63V27.9H20.93v.32h.62v2.23a1.39,1.39,0,0,0,1.52,1.34,1.46,1.46,0,0,0,1.57-1.49V28.22h.62Z" style="fill:#fff"></path><polygon points="18.65 31.38 18.03 31.38 18.03 28.2 18.65 28.2 18.65 27.89 16.79 27.89 16.79 28.2 17.4 28.2 17.4 29.6 15.16 29.6 15.16 28.2 15.78 28.2 15.78 27.89 13.92 27.89 13.92 28.2 14.54 28.2 14.54 31.38 13.92 31.38 13.92 31.68 15.78 31.68 15.78 31.38 15.16 31.38 15.16 29.93 17.4 29.93 17.4 31.38 16.79 31.38 16.79 31.68 18.65 31.68 18.65 31.38" style="fill:#fff"></polygon><path d="M42.41,28.14c.69,0,1.25.73,1.25,1.65s-.55,1.66-1.25,1.66-1.24-.74-1.24-1.67.55-1.64,1.24-1.64m0,3.65a2,2,0,1,0-2-2,2,2,0,0,0,2,2" style="fill:#fff"></path><path d="M36.22,28.22h.58a.57.57,0,0,1,.62.64.64.64,0,0,1-.68.69h-.52Zm0,1.66h.59c.54,0,.81.26.81.77s-.28.71-.82.71h-.58Zm.88,1.81c.78,0,1.23-.37,1.23-1s-.45-1-1.24-1c.6,0,1-.35,1-.84s-.44-.94-1.14-.94H35v.3h.62v3.18H35v.31Z" style="fill:#fff"></path><polygon points="32.56 31.38 31.95 31.38 31.95 28.22 32.56 28.22 32.56 27.89 31.28 27.89 29.96 30.67 28.67 27.89 27.44 27.89 27.44 28.22 28.05 28.22 28.05 31.38 27.44 31.38 27.44 31.68 29.09 31.68 29.09 31.38 28.47 31.38 28.47 28.81 29.84 31.74 31.32 28.64 31.32 31.38 30.71 31.38 30.71 31.68 32.56 31.68 32.56 31.38" style="fill:#fff"></polygon><path d="M52.65,31.36V28.22h.65a1.59,1.59,0,0,1,0,3.14Zm-1.23.33h1.94a1.9,1.9,0,1,0,0-3.79H51.42v.3H52v3.18h-.61Z" style="fill:#fff"></path><polygon points="49.55 30.86 49.25 30.86 49.25 31.36 47.87 31.36 47.87 28.22 48.49 28.22 48.49 27.89 46.63 27.89 46.63 28.22 47.25 28.22 47.25 31.38 46.63 31.38 46.63 31.68 49.55 31.68 49.55 30.86" style="fill:#fff"></polygon><polygon points="59.9 31.38 59.21 31.38 59.21 28.22 60.4 28.22 60.4 28.68 60.71 28.68 60.71 27.73 60.4 27.73 60.4 27.89 57.39 27.89 57.39 27.73 57.09 27.73 57.09 28.68 57.39 28.68 57.39 28.22 58.58 28.22 58.58 31.38 57.89 31.38 57.89 31.68 59.9 31.68 59.9 31.38" style="fill:#fff"></polygon><path d="M70.35,27.9H68.7v.32h.62v2.05a1.06,1.06,0,0,1-1.06,1.14,1,1,0,0,1-1-1.13V28.22h.62V27.9H66v.32h.62v2.23a1.39,1.39,0,0,0,1.52,1.34,1.46,1.46,0,0,0,1.58-1.49V28.22h.61Z" style="fill:#fff"></path><rect x="62.38" y="29.5" width="1.57" height="0.62" style="fill:#fff"></rect><polygon points="76.31 28.22 76.92 28.22 76.92 27.89 75.27 27.89 75.27 28.22 75.89 28.22 75.89 30.57 73.59 27.89 72.53 27.89 72.53 28.22 73.11 28.22 73.27 28.44 73.27 31.38 72.66 31.38 72.66 31.68 74.3 31.68 74.3 31.38 73.68 31.38 73.68 28.96 76.06 31.75 76.31 31.75 76.31 28.22" style="fill:#fff"></polygon><path d="M95.2,28.22h.57c.43,0,.66.26.66.72a.67.67,0,0,1-.65.75H95.2Zm2.51,3.16h-.23a.59.59,0,0,1-.48-.3L96.24,30a1,1,0,0,0,.88-1.05c0-.66-.43-1-1.23-1H94v.32h.61v3.16H94v.31h1.85v-.31H95.2V30h.4l.88,1.32c.2.31.27.35.63.35h.6Z" style="fill:#fff"></path><polygon points="81.09 31.38 80.48 31.38 80.48 28.22 81.09 28.22 81.09 27.89 79.24 27.89 79.24 28.22 79.86 28.22 79.86 31.38 79.24 31.38 79.24 31.68 81.09 31.68 81.09 31.38" style="fill:#fff"></polygon><path d="M100,31.52a1.87,1.87,0,0,0,.93.27,1.12,1.12,0,0,0,1.19-1.08c0-.53-.2-.8-.9-1.19l-.59-.34c-.27-.16-.37-.28-.37-.49s.26-.55.64-.55a1.27,1.27,0,0,1,.69.21v.41h.31v-1h-.31V28a1.36,1.36,0,0,0-.74-.19,1.11,1.11,0,0,0-1.18,1.05c0,.49.25.78,1,1.14s.9.55.9.87-.29.55-.7.55a1.52,1.52,0,0,1-.84-.28v-.42h-.3v1h.3Z" style="fill:#fff"></path><polygon points="86.44 28.22 86.78 28.22 86.78 27.89 85.59 27.89 85.59 28.22 86.06 28.22 85.03 30.76 83.97 28.22 84.49 28.22 84.49 27.89 82.9 27.89 82.9 28.22 83.3 28.22 84.78 31.78 84.97 31.78 86.44 28.22" style="fill:#fff"></polygon><path d="M114.1,30.17l.63-1.45.6,1.45Zm.5-3.31a.42.42,0,1,0-.41.41.42.42,0,0,0,.41-.41m1.45,0a.42.42,0,1,0-.41.41.42.42,0,0,0,.41-.41m.8,4.52h-.35L115,27.77h-.21l-1.58,3.61h-.31v.31H114v-.31h-.46l.39-.89h1.49l.37.89h-.36v.31h1.37Z" style="fill:#fff"></path><polygon points="91.61 30.92 91.3 30.92 91.3 31.36 89.91 31.36 89.91 29.92 90.96 29.92 90.96 30.33 91.26 30.33 91.26 29.19 90.96 29.2 90.96 29.59 89.91 29.59 89.91 28.22 91.25 28.22 91.25 28.65 91.55 28.65 91.55 27.73 91.24 27.73 91.24 27.89 88.67 27.89 88.67 28.2 89.28 28.2 89.28 31.38 88.67 31.38 88.67 31.68 91.61 31.68 91.61 30.92" style="fill:#fff"></polygon><polygon points="106.17 31.38 105.55 31.38 105.55 28.22 106.17 28.22 106.17 27.89 104.31 27.89 104.31 28.22 104.93 28.22 104.93 31.38 104.31 31.38 104.31 31.68 106.17 31.68 106.17 31.38" style="fill:#fff"></polygon><path d="M136.5,27.9h-1.65v.32h.62v2.05a1.06,1.06,0,0,1-1.06,1.14,1,1,0,0,1-1-1.13V28.22H134V27.9h-1.86v.32h.62v2.23a1.39,1.39,0,0,0,1.52,1.34,1.46,1.46,0,0,0,1.58-1.49V28.22h.61Z" style="fill:#fff"></path><polygon points="110.78 31.38 110.09 31.38 110.09 28.22 111.28 28.22 111.28 28.68 111.59 28.68 111.59 27.73 111.28 27.73 111.28 27.89 108.27 27.89 108.27 27.73 107.97 27.73 107.97 28.68 108.27 28.68 108.27 28.22 109.46 28.22 109.46 31.38 108.77 31.38 108.77 31.68 110.78 31.68 110.78 31.38" style="fill:#fff"></polygon><path d="M143.32,28.22h.59a.56.56,0,0,1,.61.64.64.64,0,0,1-.67.69h-.53Zm0,1.66h.59c.54,0,.82.26.82.77s-.28.71-.82.71h-.59Zm.88,1.81c.78,0,1.23-.37,1.23-1s-.45-1-1.24-1c.6,0,1-.35,1-.84s-.45-.94-1.14-.94h-2v.3h.62v3.18h-.62v.31Z" style="fill:#fff"></path><polygon points="120.99 31.38 120.3 31.38 120.3 28.22 121.49 28.22 121.49 28.68 121.8 28.68 121.8 27.73 121.49 27.73 121.49 27.89 118.47 27.89 118.47 27.73 118.18 27.73 118.18 28.68 118.47 28.68 118.47 28.22 119.67 28.22 119.67 31.38 118.97 31.38 118.97 31.68 120.99 31.68 120.99 31.38" style="fill:#fff"></polygon><polygon points="130.13 30.8 129.83 30.8 129.83 31.36 127.65 31.36 130.01 28.08 130.01 27.89 127.1 27.89 127.1 27.73 126.81 27.73 126.81 28.65 127.1 28.65 127.1 28.22 129.15 28.22 126.81 31.51 126.81 31.68 130.13 31.68 130.13 30.8" style="fill:#fff"></polygon><path d="M154.24,28.22h.57c.43,0,.66.26.66.72a.67.67,0,0,1-.65.75h-.58Zm2.51,3.16h-.23a.59.59,0,0,1-.48-.3L155.28,30a1,1,0,0,0,.88-1.05c0-.66-.43-1-1.22-1H153v.32h.62v3.16H153v.31h1.85v-.31h-.61V30h.4l.88,1.32c.2.31.27.35.63.35h.6Z" style="fill:#fff"></path><polygon points="150.65 30.92 150.34 30.92 150.34 31.36 148.95 31.36 148.95 29.92 150 29.92 150 30.33 150.3 30.33 150.3 29.19 150 29.2 150 29.59 148.95 29.59 148.95 28.22 150.29 28.22 150.29 28.65 150.59 28.65 150.59 27.73 150.29 27.73 150.29 27.89 147.71 27.89 147.71 28.2 148.33 28.2 148.33 31.38 147.71 31.38 147.71 31.68 150.65 31.68 150.65 30.92" style="fill:#fff"></polygon><polygon points="161.62 30.86 161.32 30.86 161.32 31.36 159.95 31.36 159.95 28.22 160.56 28.22 160.56 27.89 158.71 27.89 158.71 28.22 159.32 28.22 159.32 31.38 158.71 31.38 158.71 31.68 161.62 31.68 161.62 30.86" style="fill:#fff"></polygon><polygon points="165.42 31.38 164.81 31.38 164.81 28.22 165.42 28.22 165.42 27.89 163.57 27.89 163.57 28.22 164.18 28.22 164.18 31.38 163.57 31.38 163.57 31.68 165.42 31.68 165.42 31.38" style="fill:#fff"></polygon><polygon points="171.58 28.22 172.2 28.22 172.2 27.89 170.55 27.89 170.55 28.22 171.17 28.22 171.17 30.57 168.87 27.89 167.81 27.89 167.81 28.22 168.38 28.22 168.55 28.44 168.55 31.38 167.93 31.38 167.93 31.68 169.58 31.68 169.58 31.38 168.96 31.38 168.96 28.96 171.34 31.75 171.58 31.75 171.58 28.22" style="fill:#fff"></polygon>
  <path d="M167.92,75.66a2,2,0,0,1-.84-.18,1.89,1.89,0,0,1-.65-.51,2.61,2.61,0,0,1-.43-.81,4,4,0,0,1-.15-1.07A3.47,3.47,0,0,1,166,72a2.32,2.32,0,0,1,.43-.81,2,2,0,0,1,.66-.51,2.2,2.2,0,0,1,.86-.17,1.59,1.59,0,0,1,.77.18,1.85,1.85,0,0,1,.52.41l-.2.23a1.54,1.54,0,0,0-.47-.37,1.34,1.34,0,0,0-.61-.14,1.6,1.6,0,0,0-.73.16,1.51,1.51,0,0,0-.56.45,2.19,2.19,0,0,0-.35.7,3.28,3.28,0,0,0-.12.93,3.38,3.38,0,0,0,.12.93,2.35,2.35,0,0,0,.35.71,1.53,1.53,0,0,0,1.26.61,1.48,1.48,0,0,0,.68-.15,2,2,0,0,0,.57-.45l.2.21a2.06,2.06,0,0,1-.63.52A1.71,1.71,0,0,1,167.92,75.66Z" style="fill:#fff"></path><path d="M173,73.88h-2l-.58,1.69h-.35l1.74-4.94h.34L174,75.57h-.36Zm-.1-.3-.31-.92c-.11-.3-.2-.58-.29-.85s-.18-.56-.26-.86h0c-.09.3-.17.59-.26.86l-.29.85-.31.92Z" style="fill:#fff"></path><path d="M177.72,75.57l-1.34-2.27h-1v2.27H175V70.63h1.42a2.81,2.81,0,0,1,.67.07,1.33,1.33,0,0,1,.51.23,1,1,0,0,1,.32.4,1.4,1.4,0,0,1,.12.6,1.22,1.22,0,0,1-.34.93,1.49,1.49,0,0,1-.93.41l1.37,2.3ZM176.31,73a1.69,1.69,0,0,0,1-.26,1,1,0,0,0,.35-.82.85.85,0,0,0-.36-.78,1.83,1.83,0,0,0-1-.23h-1V73Z" style="fill:#fff"></path><path d="M180.42,70.93h-1.58v-.3h3.5v.3h-1.58v4.64h-.34Z" style="fill:#fff"></path><path d="M183.56,70.63h2.71v.3h-2.36v1.86h2v.3h-2v2.18h2.43v.3h-2.78Z" style="fill:#fff"></path><path d="M189.07,70.63h1.15a2.79,2.79,0,0,1,1,.17,2,2,0,0,1,.7.49,2.23,2.23,0,0,1,.41.78,3.48,3.48,0,0,1,.13,1,3.6,3.6,0,0,1-.13,1,2.2,2.2,0,0,1-.41.79,1.77,1.77,0,0,1-.7.5,2.5,2.5,0,0,1-1,.18h-1.16Zm1.11,4.65a2.25,2.25,0,0,0,.87-.16,1.61,1.61,0,0,0,.6-.46A1.86,1.86,0,0,0,192,74a3.15,3.15,0,0,0,.11-.89,3.08,3.08,0,0,0-.11-.88,1.89,1.89,0,0,0-.34-.68,1.56,1.56,0,0,0-.6-.44,2.08,2.08,0,0,0-.87-.16h-.76v4.36Z" style="fill:#fff"></path><path d="M194.17,70.47a1.54,1.54,0,0,0-.37.41.91.91,0,0,0-.13.52h.06a.38.38,0,0,1,.21.07.23.23,0,0,1,.09.21.31.31,0,0,1-.08.22.33.33,0,0,1-.22.08.27.27,0,0,1-.24-.13.65.65,0,0,1-.09-.37,1.36,1.36,0,0,1,.17-.69,1.43,1.43,0,0,1,.47-.48Z" style="fill:#fff"></path><path d="M195.58,70.63h2.7v.3h-2.36v1.86h2v.3h-2v2.18h2.44v.3h-2.78Z" style="fill:#fff"></path><path d="M200.86,70.93h-1.58v-.3h3.5v.3H201.2v4.64h-.34Z" style="fill:#fff"></path><path d="M205.65,75.66a2.16,2.16,0,0,1-.62-.09,1.35,1.35,0,0,1-.53-.33,1.58,1.58,0,0,1-.37-.61,2.87,2.87,0,0,1-.14-1v-3h.35v3a2.49,2.49,0,0,0,.11.83,1.43,1.43,0,0,0,.28.52,1,1,0,0,0,.42.28,1.38,1.38,0,0,0,.5.08,1.44,1.44,0,0,0,.51-.08,1,1,0,0,0,.43-.28,1.62,1.62,0,0,0,.3-.52,2.78,2.78,0,0,0,.11-.83v-3h.32v3a2.87,2.87,0,0,1-.14,1,1.59,1.59,0,0,1-.38.61,1.28,1.28,0,0,1-.53.33A2.16,2.16,0,0,1,205.65,75.66Z" style="fill:#fff"></path><path d="M209,70.63h1.15a2.7,2.7,0,0,1,1,.17,1.88,1.88,0,0,1,.7.49,2.08,2.08,0,0,1,.41.78,3.47,3.47,0,0,1,.14,1,3.59,3.59,0,0,1-.14,1,2.05,2.05,0,0,1-.41.79,1.7,1.7,0,0,1-.7.5,2.5,2.5,0,0,1-1,.18H209Zm1.11,4.65a2.33,2.33,0,0,0,.87-.16,1.5,1.5,0,0,0,.59-.46,1.87,1.87,0,0,0,.35-.69,3.56,3.56,0,0,0,.11-.89,3.48,3.48,0,0,0-.11-.88,1.91,1.91,0,0,0-.35-.68,1.46,1.46,0,0,0-.59-.44,2.14,2.14,0,0,0-.87-.16h-.77v4.36Z" style="fill:#fff"></path><path d="M213.67,70.63H214v4.94h-.35Z" style="fill:#fff"></path><path d="M217.93,73.88h-2l-.59,1.69h-.34l1.74-4.94h.34l1.74,4.94h-.36Zm-.09-.3-.32-.92-.28-.85c-.09-.27-.18-.56-.27-.86h0c-.08.3-.17.59-.26.86l-.28.85-.32.92Z" style="fill:#fff"></path><path d="M219.91,70.63h.36l2.09,3.48.55,1h0l0-.72c0-.24,0-.48,0-.72v-3h.33v4.94h-.36l-2.09-3.49-.55-1h0l0,.7c0,.23,0,.46,0,.7v3.07h-.33Z" style="fill:#fff"></path><path d="M226,70.93h-1.57v-.3h3.49v.3h-1.57v4.64H226Z" style="fill:#fff"></path><path d="M161.8,77.33v-7.5h.35v7.5Z" style="fill:#fff"></path><path d="M110.27,75.66a2.09,2.09,0,0,1-1-.21,2.14,2.14,0,0,1-.72-.53l.23-.24a2.22,2.22,0,0,0,.64.49,2,2,0,0,0,.81.17,1.4,1.4,0,0,0,.9-.27.88.88,0,0,0,.33-.72.93.93,0,0,0-.08-.39.77.77,0,0,0-.19-.28,1.55,1.55,0,0,0-.28-.2l-.34-.16-.75-.34a3.4,3.4,0,0,1-.34-.16,1.31,1.31,0,0,1-.32-.25,1.25,1.25,0,0,1-.25-.34,1.17,1.17,0,0,1,0-1,1.4,1.4,0,0,1,.3-.38,1.36,1.36,0,0,1,.46-.25,1.79,1.79,0,0,1,.57-.09,1.81,1.81,0,0,1,.8.17,2,2,0,0,1,.58.42l-.2.22a1.61,1.61,0,0,0-1.18-.5,1.22,1.22,0,0,0-.79.24.85.85,0,0,0-.22,1,.92.92,0,0,0,.21.26,1.26,1.26,0,0,0,.28.19l.29.14.75.33.39.2a1.46,1.46,0,0,1,.33.26,1.11,1.11,0,0,1,.23.36,1.22,1.22,0,0,1,.09.49,1.18,1.18,0,0,1-.12.53,1.27,1.27,0,0,1-.31.42,1.62,1.62,0,0,1-.5.28A2,2,0,0,1,110.27,75.66Z" style="fill:#fff"></path><path d="M114.42,70.93h-1.58v-.3h3.5v.3h-1.57v4.64h-.35Z" style="fill:#fff"></path><path d="M119.21,75.66a2.1,2.1,0,0,1-.61-.09,1.39,1.39,0,0,1-.54-.33,1.71,1.71,0,0,1-.37-.61,2.87,2.87,0,0,1-.14-1v-3h.35v3a2.78,2.78,0,0,0,.11.83,1.44,1.44,0,0,0,.29.52,1,1,0,0,0,.41.28,1.42,1.42,0,0,0,.5.08,1.53,1.53,0,0,0,.52-.08,1,1,0,0,0,.42-.28,1.32,1.32,0,0,0,.3-.52,2.78,2.78,0,0,0,.11-.83v-3h.33v3a2.61,2.61,0,0,1-.15,1,1.58,1.58,0,0,1-.37.61,1.39,1.39,0,0,1-.54.33A2.11,2.11,0,0,1,119.21,75.66Z" style="fill:#fff"></path><path d="M122.51,70.63h1.15a2.7,2.7,0,0,1,1,.17,1.8,1.8,0,0,1,.7.49,2.1,2.1,0,0,1,.42.78,3.48,3.48,0,0,1,.13,1,3.6,3.6,0,0,1-.13,1,2.07,2.07,0,0,1-.42.79,1.67,1.67,0,0,1-.69.5,2.5,2.5,0,0,1-1,.18h-1.16Zm1.11,4.65a2.25,2.25,0,0,0,.87-.16,1.5,1.5,0,0,0,.59-.46,1.87,1.87,0,0,0,.35-.69,3.56,3.56,0,0,0,.11-.89,3.48,3.48,0,0,0-.11-.88,1.91,1.91,0,0,0-.35-.68,1.46,1.46,0,0,0-.59-.44,2.08,2.08,0,0,0-.87-.16h-.76v4.36Z" style="fill:#fff"></path><path d="M127.23,70.63h2.71v.3h-2.37v1.86h2v.3h-2v2.18H130v.3h-2.78Z" style="fill:#fff"></path><path d="M131.26,70.63h.36l2.08,3.48.56,1h0l0-.72c0-.24,0-.48,0-.72v-3h.33v4.94h-.36l-2.08-3.49-.56-1h0l0,.7c0,.23,0,.46,0,.7v3.07h-.33Z" style="fill:#fff"></path><path d="M137.35,70.93h-1.57v-.3h3.49v.3H137.7v4.64h-.35Z" style="fill:#fff"></path><path d="M143.62,75.66a2,2,0,0,1-.84-.18,1.89,1.89,0,0,1-.65-.51,2.61,2.61,0,0,1-.43-.81,3.59,3.59,0,0,1-.15-1.07,3.47,3.47,0,0,1,.16-1.06,2.32,2.32,0,0,1,.43-.81,1.84,1.84,0,0,1,.66-.51,2.2,2.2,0,0,1,.86-.17,1.59,1.59,0,0,1,.77.18,1.85,1.85,0,0,1,.52.41l-.2.23a1.67,1.67,0,0,0-.47-.37,1.37,1.37,0,0,0-.61-.14,1.6,1.6,0,0,0-.73.16,1.51,1.51,0,0,0-.56.45,2,2,0,0,0-.35.7,3.28,3.28,0,0,0-.12.93A3.38,3.38,0,0,0,142,74a2.14,2.14,0,0,0,.35.71,1.53,1.53,0,0,0,1.26.61,1.51,1.51,0,0,0,.68-.15,2,2,0,0,0,.57-.45l.2.21a2.19,2.19,0,0,1-.63.52A1.74,1.74,0,0,1,143.62,75.66Z" style="fill:#fff"></path><path d="M148.72,73.88h-2l-.59,1.69h-.34l1.74-4.94h.34l1.74,4.94h-.36Zm-.1-.3-.32-.92-.28-.85c-.09-.27-.18-.56-.26-.86h0c-.09.3-.18.59-.27.86l-.28.85-.32.92Z" style="fill:#fff"></path><path d="M153.42,75.57l-1.34-2.27H151v2.27h-.35V70.63h1.42a2.81,2.81,0,0,1,.67.07,1.33,1.33,0,0,1,.51.23,1,1,0,0,1,.32.4,1.4,1.4,0,0,1,.12.6,1.22,1.22,0,0,1-.34.93,1.49,1.49,0,0,1-.93.41l1.37,2.3ZM152,73a1.69,1.69,0,0,0,1-.26,1,1,0,0,0,.35-.82.85.85,0,0,0-.36-.78,1.85,1.85,0,0,0-1-.23h-1V73Z" style="fill:#fff"></path><path d="M155,70.63h1.15a2.7,2.7,0,0,1,1,.17,1.88,1.88,0,0,1,.7.49,2.08,2.08,0,0,1,.41.78,3.47,3.47,0,0,1,.14,1,3.59,3.59,0,0,1-.14,1,2.05,2.05,0,0,1-.41.79,1.7,1.7,0,0,1-.7.5,2.5,2.5,0,0,1-1,.18H155Zm1.11,4.65a2.33,2.33,0,0,0,.87-.16,1.5,1.5,0,0,0,.59-.46,1.87,1.87,0,0,0,.35-.69,3.56,3.56,0,0,0,.11-.89,3.48,3.48,0,0,0-.11-.88,1.91,1.91,0,0,0-.35-.68,1.46,1.46,0,0,0-.59-.44,2.14,2.14,0,0,0-.87-.16h-.77v4.36Z" style="fill:#fff"></path><path d="M104.61,77.33v-7.5H105v7.5Z" style="fill:#fff"></path><path d="M16.07,75.66a2.72,2.72,0,0,1-1-.18,2.3,2.3,0,0,1-.85-.53l.63-.75a2.17,2.17,0,0,0,.58.36,1.45,1.45,0,0,0,.63.15.8.8,0,0,0,.51-.13.43.43,0,0,0,.17-.35.38.38,0,0,0-.05-.19.49.49,0,0,0-.14-.15l-.23-.12-.29-.12-.63-.27a2.58,2.58,0,0,1-.37-.19,2.13,2.13,0,0,1-.31-.29,1.14,1.14,0,0,1-.22-.37,1.26,1.26,0,0,1-.09-.49,1.35,1.35,0,0,1,.13-.56,1.64,1.64,0,0,1,.36-.47,2,2,0,0,1,.55-.31,2.28,2.28,0,0,1,.7-.11,2.51,2.51,0,0,1,.85.16,2.11,2.11,0,0,1,.73.48l-.56.7a2.45,2.45,0,0,0-.48-.29,1.53,1.53,0,0,0-.54-.1.75.75,0,0,0-.45.12.37.37,0,0,0-.17.32.34.34,0,0,0,.06.2.56.56,0,0,0,.16.14l.23.12.29.12.63.26a1.7,1.7,0,0,1,.71.49,1.24,1.24,0,0,1,.26.84,1.47,1.47,0,0,1-.12.58,1.38,1.38,0,0,1-.36.48,2.15,2.15,0,0,1-.58.33A2.37,2.37,0,0,1,16.07,75.66Z" style="fill:#fff"></path><path d="M20.17,71.61H18.83v-.93h3.79v.93H21.28v4H20.17Z" style="fill:#fff"></path><path d="M25.6,75.66a1.88,1.88,0,0,1-1.46-.56,2.69,2.69,0,0,1-.5-1.8V70.68h1.11v2.74a1.66,1.66,0,0,0,.22,1,.74.74,0,0,0,.63.29.78.78,0,0,0,.64-.29,1.66,1.66,0,0,0,.22-1V70.68h1.07V73.3A2.75,2.75,0,0,1,27,75.1,1.83,1.83,0,0,1,25.6,75.66Z" style="fill:#fff"></path><path d="M28.88,70.68h1.38a3.52,3.52,0,0,1,1,.14,2,2,0,0,1,.77.44,2,2,0,0,1,.5.75,3.24,3.24,0,0,1,.17,1.09,3.3,3.3,0,0,1-.17,1.1,2.16,2.16,0,0,1-.49.77,2,2,0,0,1-.75.45,3.05,3.05,0,0,1-1,.15H28.88Zm1.31,4a1.7,1.7,0,0,0,.57-.09,1,1,0,0,0,.43-.26,1.3,1.3,0,0,0,.29-.49,2.49,2.49,0,0,0,.1-.74,2.52,2.52,0,0,0-.1-.73,1.21,1.21,0,0,0-.29-.47,1,1,0,0,0-.43-.25,2,2,0,0,0-.57-.08H30v3.11Z" style="fill:#fff"></path><path d="M33.84,70.68h1.1v4.89h-1.1Z" style="fill:#fff"></path><path d="M36.3,70.68h3.06v.93h-2v1h1.67v.92H37.4v1.13h2v.93H36.3Z" style="fill:#fff"></path><path d="M43.29,75.57l-.94-1.76h-.6v1.76H40.64V70.68h1.77a4.21,4.21,0,0,1,.73.07,1.59,1.59,0,0,1,.59.26,1.22,1.22,0,0,1,.41.46,1.61,1.61,0,0,1,.15.73,1.53,1.53,0,0,1-.24.89,1.4,1.4,0,0,1-.63.52l1.11,2Zm-1.54-2.64h.57a1,1,0,0,0,.66-.18.69.69,0,0,0,.23-.55.54.54,0,0,0-.23-.5,1.2,1.2,0,0,0-.66-.14h-.57Z" style="fill:#fff"></path><path d="M45.44,70.68H48.5v.93h-2v1h1.66v.92H46.55v1.13h2v.93H45.44Z" style="fill:#fff"></path><path d="M49.79,70.68h1.13l1.27,2.43.48,1.08h0c0-.26-.05-.55-.08-.87a7.39,7.39,0,0,1,0-.92V70.68h1v4.89H52.49l-1.28-2.44-.48-1.06h0q0,.41.09.87c0,.31.05.61.05.9v1.73H49.79Z" style="fill:#fff"></path><path d="M55,70.68h1.38a3.52,3.52,0,0,1,1,.14,2,2,0,0,1,.77.44,2,2,0,0,1,.5.75,3.24,3.24,0,0,1,.17,1.09,3.3,3.3,0,0,1-.17,1.1,2.16,2.16,0,0,1-.49.77,2,2,0,0,1-.75.45,3.05,3.05,0,0,1-1,.15H55Zm1.31,4a1.7,1.7,0,0,0,.57-.09,1,1,0,0,0,.43-.26,1.3,1.3,0,0,0,.29-.49,2.49,2.49,0,0,0,.1-.74,2.52,2.52,0,0,0-.1-.73,1.21,1.21,0,0,0-.29-.47,1,1,0,0,0-.43-.25,2,2,0,0,0-.57-.08h-.21v3.11Z" style="fill:#fff"></path><path d="M59.93,70.68H63v.93H61v1h1.66v.92H61v1.13h2v.93H59.93Z" style="fill:#fff"></path><path d="M64.27,70.68H65.4l1.28,2.43.48,1.08h0q0-.39-.09-.87c0-.32,0-.63,0-.92V70.68h1v4.89H67l-1.28-2.44-.48-1.06h0q0,.41.09.87c0,.31,0,.61,0,.9v1.73h-1Z" style="fill:#fff"></path><path d="M71.8,74.41H70.31L70,75.57H68.88l1.53-4.89h1.33l1.53,4.89H72.1Zm-.23-.87-.11-.45c-.07-.24-.14-.5-.2-.78s-.13-.54-.2-.79h0l-.18.8c-.06.27-.13.53-.2.77l-.12.45Z" style="fill:#fff"></path><path d="M75.87,75.66a1.85,1.85,0,0,1-1.45-.56,2.63,2.63,0,0,1-.51-1.8V70.68H75v2.74a1.74,1.74,0,0,0,.22,1,.84.84,0,0,0,1.27,0,1.66,1.66,0,0,0,.22-1V70.68H77.8V73.3a2.75,2.75,0,0,1-.49,1.8A1.83,1.83,0,0,1,75.87,75.66Z" style="fill:#fff"></path><path d="M80.66,75.66a2.72,2.72,0,0,1-1-.18,2.3,2.3,0,0,1-.85-.53l.63-.75a2.17,2.17,0,0,0,.58.36,1.45,1.45,0,0,0,.63.15.8.8,0,0,0,.51-.13.43.43,0,0,0,.17-.35.38.38,0,0,0-.05-.19.49.49,0,0,0-.14-.15L81,73.77l-.29-.12L80,73.38a2.58,2.58,0,0,1-.37-.19,1.72,1.72,0,0,1-.31-.29,1,1,0,0,1-.22-.37A1.26,1.26,0,0,1,79,72a1.35,1.35,0,0,1,.13-.56,1.64,1.64,0,0,1,.36-.47,2,2,0,0,1,.55-.31,2.23,2.23,0,0,1,.7-.11,2.51,2.51,0,0,1,.85.16,2.11,2.11,0,0,1,.73.48l-.56.7a2.45,2.45,0,0,0-.48-.29,1.53,1.53,0,0,0-.54-.1.75.75,0,0,0-.45.12.37.37,0,0,0-.17.32.34.34,0,0,0,.06.2.56.56,0,0,0,.16.14l.23.12.29.12.63.26a1.7,1.7,0,0,1,.71.49,1.24,1.24,0,0,1,.26.84,1.47,1.47,0,0,1-.12.58,1.38,1.38,0,0,1-.36.48,2.15,2.15,0,0,1-.58.33A2.37,2.37,0,0,1,80.66,75.66Z" style="fill:#fff"></path><path d="M83.29,70.68h1.13L84.76,73c0,.25.06.51.1.77l.09.77h0l.15-.77.15-.77.52-2.29h.94L87.26,73l.15.76.15.78h0c0-.26.07-.52.1-.78s.06-.51.1-.76l.34-2.29h1.05l-.87,4.89H86.93l-.48-2.22c0-.19-.08-.38-.11-.57s-.06-.38-.09-.56h0c0,.18-.06.36-.09.56s-.07.38-.11.57l-.46,2.22H84.2Z" style="fill:#fff"></path><path d="M90.11,70.68h3.06v.93h-2v1h1.66v.92H91.21v1.13h2v.93H90.11Z" style="fill:#fff"></path><path d="M94.46,70.68h1.1v4.89h-1.1Z" style="fill:#fff"></path><path d="M98.45,75.66a2.62,2.62,0,0,1-1-.18,2.3,2.3,0,0,1-.85-.53l.63-.75a2.17,2.17,0,0,0,.58.36,1.45,1.45,0,0,0,.62.15.83.83,0,0,0,.52-.13.43.43,0,0,0,.17-.35.38.38,0,0,0,0-.19.66.66,0,0,0-.14-.15l-.23-.12-.29-.12-.64-.27a3.13,3.13,0,0,1-.36-.19,1.72,1.72,0,0,1-.31-.29,1.16,1.16,0,0,1-.23-.37,1.48,1.48,0,0,1-.08-.49,1.21,1.21,0,0,1,.13-.56,1.35,1.35,0,0,1,.36-.47,1.83,1.83,0,0,1,.55-.31,2.23,2.23,0,0,1,.7-.11,2.41,2.41,0,0,1,.84.16,2.15,2.15,0,0,1,.74.48l-.57.7a2.45,2.45,0,0,0-.48-.29,1.47,1.47,0,0,0-.53-.1.75.75,0,0,0-.45.12A.37.37,0,0,0,98,72a.34.34,0,0,0,.06.2.41.41,0,0,0,.15.14l.24.12.29.12.63.26a1.7,1.7,0,0,1,.71.49,1.3,1.3,0,0,1,.26.84,1.33,1.33,0,0,1-.13.58,1.38,1.38,0,0,1-.36.48,2,2,0,0,1-.58.33A2.37,2.37,0,0,1,98.45,75.66Z" style="fill:#fff"></path>
  <path d="M5.67,147.37h1.7V124.69H5.67Zm4,0h1.7V124.69H9.64Zm4,0h1.7V124.69h-1.7Zm4,0h1.7V124.69h-1.7Zm4,0h1.71V124.69H21.54Zm4,0h1.7V124.69h-1.7Zm5.67-22.68h-1.7v22.68h1.7Z"></path>
  <rect x="35.43" y="82.17" width="56.69" height="56.69" style="fill:#e5e6e6"></rect><path d="M86.59,129.65h0c0-3,.06-6.83-6-8.23-5.64-1.28-12.5-4.61-10.48-8.93,1.3,2.13,5.32,3.36,8.46,1.52-9-2.28,4.44-17.92-7.36-26.68a12.47,12.47,0,0,0-14.78,0C44.59,96.09,58.06,111.73,49,114c3.14,1.84,7.17.55,8.46-1.52,2,4.33-4.85,7.65-10.48,8.93-6.1,1.4-6.07,5.2-6,8.23h0v9.22H86.59Z" style="fill:#babcbe"></path>
  <text transform="translate(98.93 93.65)" style="font-size:10px;font-family:Arial;font-weight:700">Bernt Olof Larsson</text>
  <text transform="translate(98.93 115.84)" style="font-size:7.5px;font-family:Arial">Geburtsdatum</text>
  <text transform="translate(155.62 115.84)" style="font-size:7.5px;font-family:Arial;font-weight:700">01.01.2000</text>
  <text transform="translate(98.93 125.21)" style="font-size:7.5px;font-family:Arial">Matrikelnummer</text>
  <text transform="translate(155.62 125.21)" style="font-size:7.5px;font-family:Arial;font-weight:700">12345</text>
  <text transform="translate(98.93 134.59)" style="font-size:7.5px;font-family:Arial">Bibliothek</text>
  <text transform="translate(155.62 134.59)" style="font-size:7.5px;font-family:Arial;font-weight:700"><!----><!----></text>

</svg>
